<svg width="91" height="41" viewBox="0 0 91 41" fill="none" xmlns="http://www.w3.org/2000/svg">
<path d="M28.6552 19.6606C30.3681 20.296 31.6942 21.2215 32.6335 22.4371C33.5729 23.6527 34.0425 25.117 34.0425 26.8299C34.0425 29.3715 32.9927 31.3469 30.893 32.7559C28.7933 34.1372 25.7544 34.8279 21.776 34.8279H5.44833V5.81934H20.9472C24.815 5.81934 27.7297 6.51002 29.6912 7.89138C31.6804 9.27274 32.675 11.11 32.675 13.403C32.675 14.7568 32.3297 15.9723 31.639 17.0498C30.9759 18.1273 29.9813 18.9975 28.6552 19.6606ZM15.0626 12.6571V16.9669H19.6211C21.7484 16.9669 22.8121 16.2486 22.8121 14.812C22.8121 13.3754 21.7484 12.6571 19.6211 12.6571H15.0626ZM20.9472 27.9902C23.1021 27.9902 24.1796 27.2305 24.1796 25.711C24.1796 24.1914 23.1021 23.4317 20.9472 23.4317H15.0626V27.9902H20.9472Z" fill="white"/>
<path d="M72.929 5.81934L63.6463 34.8279H53.1617L48.4789 19.3291L43.5474 34.8279H33.0629L23.7802 5.81934H33.8503L38.9061 22.3128L44.2519 5.81934H53.2446L58.3004 22.52L63.6463 5.81934H72.929Z" fill="#FF9C00"/>
<path d="M73.6868 35.2587C71.3319 35.2606 69.031 35.007 66.784 34.4979C64.564 33.9619 64.586 33.9462 63.9247 33.7257L66.1446 26.3055C67.6721 26.8924 67.2514 26.8333 68.93 27.316C70.6085 27.7718 72.2193 27.999 73.7621 27.9978C75.0884 27.9967 76.0357 27.8749 76.6039 27.6324C77.1721 27.363 77.456 26.9729 77.4556 26.4619C77.4551 25.8703 77.0758 25.4269 76.3177 25.1317C75.5866 24.8365 74.3683 24.5148 72.6628 24.1666C70.4699 23.7112 68.6425 23.2286 67.1804 22.7189C65.7183 22.1822 64.4455 21.3227 63.3618 20.1403C62.2781 18.9311 61.7354 17.3045 61.7338 15.2607C61.7323 13.4859 62.2318 11.8719 63.2321 10.419C64.2324 8.96598 65.7202 7.82185 67.6954 6.98659C69.6977 6.15132 72.12 5.73252 74.9621 5.73021C76.9109 5.72863 78.8193 5.94222 80.6874 6.37097C82.5824 6.77281 84.2476 7.37653 85.6828 8.18213L82.8057 15.0823C80.0166 13.6861 77.3769 12.9891 74.8867 12.9911C72.4236 12.9931 71.1925 13.5858 71.1935 14.769C71.1939 15.3337 71.5597 15.7637 72.2908 16.0589C73.0218 16.3273 74.2266 16.6221 75.905 16.9434C78.0707 17.345 79.8981 17.8142 81.3873 18.3508C82.8765 18.8606 84.1628 19.7066 85.2465 20.889C86.3572 22.0713 86.9134 23.6844 86.9151 25.7282C86.9165 27.503 86.4171 29.117 85.4168 30.57C84.4164 31.996 82.9151 33.1402 80.9128 34.0024C78.9375 34.8376 76.5289 35.2564 73.6868 35.2587Z" fill="white"/>
</svg>
