<svg width="32" height="32" viewBox="0 0 32 32" fill="none" xmlns="http://www.w3.org/2000/svg">
<g filter="url(#filter0_d_76_4291)">
<path d="M25.0594 9.51875L20.2313 4.69063C19.9499 4.41003 19.5692 4.2517 19.1719 4.25H12.3281C11.9308 4.2517 11.5501 4.41003 11.2688 4.69063L6.44063 9.51875C6.16003 9.80011 6.0017 10.1808 6 10.5781V17.4125C5.99962 17.6109 6.03834 17.8073 6.11394 17.9907C6.18955 18.1741 6.30056 18.3408 6.44063 18.4813L11.2688 23.3094C11.5501 23.59 11.9308 23.7483 12.3281 23.75H19.1719C19.5692 23.7483 19.9499 23.59 20.2313 23.3094L25.0594 18.4813C25.1994 18.3408 25.3105 18.1741 25.3861 17.9907C25.4617 17.8073 25.5004 17.6109 25.5 17.4125V10.5781C25.4983 10.1808 25.34 9.80011 25.0594 9.51875ZM15 9.5C15 9.30109 15.079 9.11032 15.2197 8.96967C15.3603 8.82902 15.5511 8.75 15.75 8.75C15.9489 8.75 16.1397 8.82902 16.2803 8.96967C16.421 9.11032 16.5 9.30109 16.5 9.5V14.75C16.5 14.9489 16.421 15.1397 16.2803 15.2803C16.1397 15.421 15.9489 15.5 15.75 15.5C15.5511 15.5 15.3603 15.421 15.2197 15.2803C15.079 15.1397 15 14.9489 15 14.75V9.5ZM15.75 19.25C15.5275 19.25 15.31 19.184 15.125 19.0604C14.94 18.9368 14.7958 18.7611 14.7106 18.5555C14.6255 18.35 14.6032 18.1238 14.6466 17.9055C14.69 17.6873 14.7972 17.4868 14.9545 17.3295C15.1118 17.1722 15.3123 17.065 15.5305 17.0216C15.7488 16.9782 15.975 17.0005 16.1805 17.0856C16.3861 17.1708 16.5618 17.315 16.6854 17.5C16.809 17.685 16.875 17.9025 16.875 18.125C16.875 18.4234 16.7565 18.7095 16.5455 18.9205C16.3345 19.1315 16.0484 19.25 15.75 19.25Z" fill="#FF0000"/>
</g>
<defs>
<filter id="filter0_d_76_4291" x="0" y="0.25" width="31.5" height="31.5" filterUnits="userSpaceOnUse" color-interpolation-filters="sRGB">
<feFlood flood-opacity="0" result="BackgroundImageFix"/>
<feColorMatrix in="SourceAlpha" type="matrix" values="0 0 0 0 0 0 0 0 0 0 0 0 0 0 0 0 0 0 127 0" result="hardAlpha"/>
<feOffset dy="2"/>
<feGaussianBlur stdDeviation="3"/>
<feComposite in2="hardAlpha" operator="out"/>
<feColorMatrix type="matrix" values="0 0 0 0 1 0 0 0 0 0 0 0 0 0 0 0 0 0 0.25 0"/>
<feBlend mode="normal" in2="BackgroundImageFix" result="effect1_dropShadow_76_4291"/>
<feBlend mode="normal" in="SourceGraphic" in2="effect1_dropShadow_76_4291" result="shape"/>
</filter>
</defs>
</svg>
