<svg width="116" height="116" viewBox="0 0 116 116" fill="none" xmlns="http://www.w3.org/2000/svg">
<path d="M45 47C45 45.8954 45.8954 45 47 45H69C70.1046 45 71 45.8954 71 47V69C71 70.1046 70.1046 71 69 71H47C45.8954 71 45 70.1046 45 69V47Z" fill="#FF9C00"/>
<path d="M39.5 40C39.5 39.7239 39.7239 39.5 40 39.5H76C76.2761 39.5 76.5 39.7239 76.5 40V76C76.5 76.2761 76.2761 76.5 76 76.5H40C39.7239 76.5 39.5 76.2761 39.5 76V40Z" stroke="white" stroke-width="3"/>
<path d="M8.2742 8.77441C8.2742 8.49827 8.49806 8.27441 8.7742 8.27441H21.2258C21.502 8.27441 21.7258 8.49827 21.7258 8.77441V21.226C21.7258 21.5022 21.502 21.726 21.2258 21.726H8.7742C8.49806 21.726 8.2742 21.5022 8.2742 21.226V8.77441Z" stroke="white" stroke-width="3"/>
<path d="M1.5 2C1.5 1.72386 1.72386 1.5 2 1.5H28C28.2761 1.5 28.5 1.72386 28.5 2V28C28.5 28.2761 28.2761 28.5 28 28.5H2C1.72386 28.5 1.5 28.2761 1.5 28V2Z" stroke="white" stroke-width="3"/>
<path d="M15 30V53C15 54.5 15.8 55 17 55C18.2 55 33.8333 55 38 55" stroke="white" stroke-width="3"/>
<path d="M94.2742 8.77441C94.2742 8.49827 94.4981 8.27441 94.7742 8.27441H107.226C107.502 8.27441 107.726 8.49827 107.726 8.77441V21.226C107.726 21.5022 107.502 21.726 107.226 21.726H94.7742C94.4981 21.726 94.2742 21.5022 94.2742 21.226V8.77441Z" stroke="white" stroke-width="3"/>
<path d="M87.5 2C87.5 1.72386 87.7239 1.5 88 1.5H114C114.276 1.5 114.5 1.72386 114.5 2V28C114.5 28.2761 114.276 28.5 114 28.5H88C87.7239 28.5 87.5 28.2761 87.5 28V2Z" stroke="white" stroke-width="3"/>
<path d="M65 38V17C65 15.5 65.8 15 67 15C68.2 15 81.8333 15 86 15" stroke="white" stroke-width="3"/>
<path d="M8.2742 94.7744C8.2742 94.4983 8.49806 94.2744 8.7742 94.2744H21.2258C21.502 94.2744 21.7258 94.4983 21.7258 94.7744V107.226C21.7258 107.502 21.502 107.726 21.2258 107.726H8.7742C8.49806 107.726 8.2742 107.502 8.2742 107.226V94.7744Z" stroke="white" stroke-width="3"/>
<path d="M1.5 88C1.5 87.7239 1.72386 87.5 2 87.5H28C28.2761 87.5 28.5 87.7239 28.5 88V114C28.5 114.276 28.2761 114.5 28 114.5H2C1.72386 114.5 1.5 114.276 1.5 114V88Z" stroke="white" stroke-width="3"/>
<path d="M52 78V98C52 99.5 51.2 100 50 100C48.8 100 34.1667 100 30 100" stroke="white" stroke-width="3"/>
<path d="M94.2742 94.7744C94.2742 94.4983 94.4981 94.2744 94.7742 94.2744H107.226C107.502 94.2744 107.726 94.4983 107.726 94.7744V107.226C107.726 107.502 107.502 107.726 107.226 107.726H94.7742C94.4981 107.726 94.2742 107.502 94.2742 107.226V94.7744Z" stroke="white" stroke-width="3"/>
<path d="M87.5 88C87.5 87.7239 87.7239 87.5 88 87.5H114C114.276 87.5 114.5 87.7239 114.5 88V114C114.5 114.276 114.276 114.5 114 114.5H88C87.7239 114.5 87.5 114.276 87.5 114V88Z" stroke="white" stroke-width="3"/>
<path d="M101 86V62C101 60.5 100.2 60 99 60C97.8 60 82.1667 60 78 60" stroke="white" stroke-width="3"/>
<path fill-rule="evenodd" clip-rule="evenodd" d="M55 26.5C55 27.8807 53.8807 29 52.5 29C51.1193 29 50 27.8807 50 26.5C50 25.1193 51.1193 24 52.5 24C53.8807 24 55 25.1193 55 26.5ZM54 31.793C56.3085 31.14 58 29.0176 58 26.5C58 23.4624 55.5376 21 52.5 21C49.4624 21 47 23.4624 47 26.5C47 29.0176 48.6915 31.14 51 31.793V38.5H54V31.793Z" fill="white"/>
<path fill-rule="evenodd" clip-rule="evenodd" d="M94 50.5C94 51.8807 92.8807 53 91.5 53C90.1193 53 89 51.8807 89 50.5C89 49.1193 90.1193 48 91.5 48C92.8807 48 94 49.1193 94 50.5ZM97 50.5C97 53.5376 94.5376 56 91.5 56C88.9824 56 86.86 54.3085 86.207 52L78 52V49L86.207 49C86.86 46.6915 88.9824 45 91.5 45C94.5376 45 97 47.4624 97 50.5Z" fill="white"/>
<path fill-rule="evenodd" clip-rule="evenodd" d="M66.5 85.207C68.8085 85.86 70.5 87.9824 70.5 90.5C70.5 93.5376 68.0376 96 65 96C61.9624 96 59.5 93.5376 59.5 90.5C59.5 87.9824 61.1915 85.86 63.5 85.207V77H66.5V85.207ZM67.5 90.5C67.5 91.8807 66.3807 93 65 93C63.6193 93 62.5 91.8807 62.5 90.5C62.5 89.1193 63.6193 88 65 88C66.3807 88 67.5 89.1193 67.5 90.5Z" fill="white"/>
<path fill-rule="evenodd" clip-rule="evenodd" d="M33 65.5C33 66.8807 31.8807 68 30.5 68C29.1193 68 28 66.8807 28 65.5C28 64.1193 29.1193 63 30.5 63C31.8807 63 33 64.1193 33 65.5ZM35.793 67C35.14 69.3085 33.0176 71 30.5 71C27.4624 71 25 68.5376 25 65.5C25 62.4624 27.4624 60 30.5 60C33.0176 60 35.14 61.6915 35.793 64H39V67H35.793Z" fill="white"/>
</svg>
