<svg width="12" height="12" viewBox="0 0 12 12" fill="none" xmlns="http://www.w3.org/2000/svg">
<path d="M9.48595 0.429323L5.99995 3.91551C4.83801 2.75395 3.6757 1.59126 2.51358 0.429323C1.1692 -0.915052 -0.914674 1.16957 0.428576 2.51432C1.59089 3.67551 2.75358 4.83839 3.91458 6.00032C2.75305 7.16279 1.59104 8.32479 0.428576 9.48632C-0.914674 10.8303 1.16939 12.9144 2.51358 11.5713C3.67551 10.409 4.83783 9.24651 5.99976 8.08495L9.48576 11.5713C10.8301 12.9153 12.9146 10.8305 11.5708 9.48632C10.4085 8.32401 9.24651 7.16207 8.08383 5.99995C9.24633 4.83764 10.4083 3.67532 11.5708 2.5132C12.9148 1.16957 10.8303 -0.915052 9.48576 0.430073" fill="white"/>
</svg>
