<svg width="1920" height="1008" viewBox="0 0 1920 1008" fill="none" xmlns="http://www.w3.org/2000/svg">
<path opacity="0.1" d="M-70.2124 37.3031L-70.2112 37.302C-45.5385 16.0122 -14.0713 4.25379 18.5065 4.15C84.8744 4.15321 139.806 53.5159 145.778 116.945L146.085 120.207L149.329 120.665C187.907 126.121 217.85 158.409 217.85 197.858C217.85 241.16 181.727 275.85 137.726 275.85H-88.8208C-139.384 275.85 -180.85 235.994 -180.85 186.276C-180.85 143.469 -150.122 107.896 -109.268 98.8705L-106.527 98.2651L-106.069 95.4962C-102.63 74.7316 -89.1741 53.6518 -70.2124 37.3031ZM-89.7911 105.764V113.449L-97.4129 114.289C-97.4137 114.289 -97.4145 114.289 -97.4153 114.29C-134.943 118.403 -163.712 149.279 -163.712 186.276C-163.712 226.02 -130.455 258.695 -88.8208 258.695H137.726C172.798 258.695 200.712 231.186 200.712 197.858C200.712 164.506 172.799 136.995 137.726 136.995H129.157V128.42C129.157 128.419 129.157 128.419 129.157 128.418C129.182 69.5027 79.8943 21.3045 18.5 21.3045H18.4917L18.4834 21.3046C-7.04279 21.4066 -31.7827 29.6901 -52.1617 44.8168V44.3646L-59.0234 50.2876C-78.85 67.4018 -89.7911 88.488 -89.7911 105.764Z" fill="#858587" stroke="#2A2A2A" stroke-width="8.3"/>
<path opacity="0.1" fill-rule="evenodd" clip-rule="evenodd" d="M1811.23 377.266C1811.23 364.777 1801.1 354.653 1788.61 354.653C1776.12 354.653 1766 364.777 1766 377.266C1766 389.754 1776.12 399.878 1788.61 399.878C1801.1 399.878 1811.23 389.754 1811.23 377.266ZM1820.23 377.266C1820.23 362.796 1810.5 350.596 1797.23 346.843L1797.23 322.662L1788.23 322.662L1788.23 345.655C1770.95 345.858 1757 359.933 1757 377.266C1757 394.725 1771.15 408.878 1788.61 408.878C1806.07 408.878 1820.23 394.725 1820.23 377.266ZM1930.68 94L1804.23 94C1799.15 94 1794.83 95.371 1791.89 98.6642C1789.04 101.857 1788.23 106.036 1788.23 109.995L1788.23 110.038L1788.23 110.084L1788.23 110.135L1788.23 110.189L1788.23 110.247L1788.23 110.31L1788.23 110.376L1788.23 110.446L1788.23 110.52L1788.23 110.597L1788.23 110.679L1788.23 110.764L1788.23 110.854L1788.23 110.947L1788.23 111.044L1788.23 111.144L1788.23 111.249L1788.23 111.357L1788.23 111.469L1788.23 111.585L1788.23 111.704L1788.23 111.827L1788.23 111.954L1788.23 112.084L1788.23 112.218L1788.23 112.356L1788.23 112.497L1788.23 112.642L1788.23 112.791L1788.23 112.943L1788.23 113.098L1788.23 113.257L1788.23 113.42L1788.23 113.586L1788.23 113.756L1788.23 113.929L1788.23 114.106L1788.23 114.286L1788.23 114.469L1788.23 114.656L1788.23 114.847L1788.23 115.04L1788.23 115.238L1788.23 115.438L1788.23 115.642L1788.23 115.849L1788.23 116.06L1788.23 116.273L1788.23 116.49L1788.23 116.711L1788.23 116.934L1788.23 117.161L1788.23 117.391L1788.23 117.625L1788.23 117.861L1788.23 118.101L1788.23 118.344L1788.23 118.59L1788.23 118.839L1788.23 119.091L1788.23 119.347L1788.23 119.605L1788.23 119.867L1788.23 120.132L1788.23 120.399L1788.23 120.67L1788.23 120.944L1788.23 121.22L1788.23 121.5L1788.23 121.783L1788.23 122.069L1788.23 122.357L1788.23 122.649L1788.23 122.943L1788.23 123.241L1788.23 123.541L1788.23 123.844L1788.23 124.15L1788.23 124.459L1788.23 124.771L1788.23 125.085L1788.23 125.403L1788.23 125.723L1788.23 126.046L1788.23 126.371L1788.23 126.7L1788.23 127.031L1788.23 127.364L1788.23 127.701L1788.23 128.04L1788.23 128.382L1788.23 128.726L1788.23 129.073L1788.23 129.423L1788.23 129.775L1788.23 130.13L1788.23 130.488L1788.23 130.848L1788.23 131.211L1788.23 131.576L1788.23 131.943L1788.23 132.314L1788.23 132.686L1788.23 133.061L1788.23 133.439L1788.23 133.819L1788.23 134.201L1788.23 134.586L1788.23 134.973L1788.23 135.363L1788.23 135.755L1788.23 136.149L1788.23 136.546L1788.23 136.945L1788.23 137.346L1788.23 137.75L1788.23 138.156L1788.23 138.564L1788.23 138.974L1788.23 139.387L1788.23 139.802L1788.23 140.219L1788.23 140.638L1788.23 141.06L1788.23 141.483L1788.23 141.909L1788.23 142.337L1788.23 142.767L1788.23 143.199L1788.23 143.633L1788.23 144.069L1788.23 144.507L1788.23 144.948L1788.23 145.39L1788.23 145.834L1788.23 146.281L1788.23 146.729L1788.23 147.179L1788.23 147.631L1788.23 148.086L1788.23 148.542L1788.23 149L1788.23 149.46L1788.23 149.921L1788.23 150.385L1788.23 150.85L1788.23 151.318L1788.23 151.787L1788.23 152.258L1788.23 152.731L1788.23 153.205L1788.23 153.681L1788.23 154.159L1788.23 154.639L1788.23 155.12L1788.23 155.603L1788.23 156.088L1788.23 156.575L1788.23 157.063L1788.23 157.553L1788.23 158.044L1788.23 158.537L1788.23 159.032L1788.23 159.528L1788.23 160.025L1788.23 160.525L1788.23 161.026L1788.23 161.528L1788.23 162.032L1788.23 162.537L1788.23 163.044L1788.23 163.552L1788.23 164.062L1788.23 164.573L1788.23 165.085L1788.23 165.599L1788.23 166.115L1788.23 166.631L1788.23 167.15L1788.23 167.669L1788.23 168.19L1788.23 168.712L1788.23 169.235L1788.23 169.76L1788.23 170.286L1788.23 170.813L1788.23 171.341L1788.23 171.871L1788.23 172.401L1788.23 172.933L1788.23 173.467L1788.23 174.001L1788.23 174.536L1788.23 175.073L1788.23 175.611L1788.23 176.15L1788.23 176.689L1788.23 177.23L1788.23 177.773L1788.23 178.316L1788.23 178.86L1788.23 179.405L1788.23 179.951L1788.23 180.498L1788.23 181.046L1788.23 181.595L1788.23 182.145L1788.23 182.696L1788.23 183.248L1788.23 183.801L1788.23 184.354L1788.23 184.909L1788.23 185.464L1788.23 186.02L1788.23 186.577L1788.23 187.135L1788.23 187.693L1788.23 188.253L1788.23 188.813L1788.23 189.374L1788.23 189.935L1788.23 190.497L1788.23 191.06L1788.23 191.624L1788.23 192.188L1788.23 192.753L1788.23 193.319L1788.23 193.885L1788.23 194.452L1788.23 195.02L1788.23 195.588L1788.23 196.156L1788.23 196.725L1788.23 197.295L1788.23 197.865L1788.23 198.436L1788.23 199.007L1788.23 199.579L1788.23 200.151L1788.23 200.724L1788.23 201.297L1788.23 201.87L1788.23 202.444L1788.23 203.018L1788.23 203.593L1788.23 204.168L1788.23 204.743L1788.23 205.319L1788.23 205.895L1788.23 206.471L1788.23 207.048L1788.23 207.625L1788.23 208.202L1788.23 208.779L1788.23 209.357L1788.23 209.934L1788.23 210.512L1788.23 211.091L1788.23 211.669L1788.23 212.247L1788.23 212.826L1788.23 213.405L1788.23 213.983L1788.23 214.562L1788.23 215.141L1788.23 215.72L1788.23 216.299L1788.23 216.879L1788.23 217.458L1788.23 218.037L1788.23 218.616L1788.23 219.195L1788.23 219.774L1788.23 220.353L1788.23 220.932L1788.23 221.511L1788.23 222.09L1788.23 222.668L1788.23 223.247L1788.23 223.825L1788.23 224.403L1788.23 224.981L1788.23 225.559L1788.23 226.137L1788.23 226.714L1788.23 227.291L1788.23 227.868L1788.23 228.445L1788.23 229.021L1788.23 229.597L1788.23 230.173L1788.23 230.748L1788.23 231.323L1788.23 231.898L1788.23 232.472L1788.23 233.046L1788.23 233.62L1788.23 234.193L1788.23 234.766L1788.23 235.338L1788.23 235.91L1788.23 236.481L1788.23 237.052L1788.23 237.622L1788.23 238.192L1788.23 238.762L1788.23 239.33L1788.23 239.898L1788.23 240.466L1788.23 241.033L1788.23 241.599L1788.23 242.165L1788.23 242.73L1788.23 243.295L1788.23 243.859L1788.23 244.422L1788.23 244.984L1788.23 245.546L1788.23 246.107L1788.23 246.667L1788.23 247.227L1788.23 247.785L1788.23 248.343L1788.23 248.901L1788.23 249.457L1788.23 250.012L1788.23 250.567L1788.23 251.121L1788.23 251.674L1788.23 252.226L1788.23 252.777L1788.23 253.327L1788.23 253.876L1788.23 254.425L1788.23 254.972L1788.23 255.518L1788.23 256.064L1788.23 256.608L1788.23 257.151L1788.23 257.694L1788.23 258.235L1788.23 258.775L1788.23 259.314L1788.23 259.852L1788.23 260.389L1788.23 260.925L1788.23 261.459L1788.23 261.993L1788.23 262.525L1788.23 263.056L1788.23 263.586L1788.23 264.115L1788.23 264.642L1788.23 265.168L1788.23 265.693L1788.23 266.217L1788.23 266.739L1788.23 267.26L1788.23 267.78L1788.23 268.298L1788.23 268.815L1788.23 269.331L1788.23 269.845L1788.23 270.358L1788.23 270.87L1788.23 271.38L1788.23 271.888L1788.23 272.395L1788.23 272.901L1788.23 273.405L1788.23 273.908L1788.23 274.409L1788.23 274.909L1788.23 275.407L1788.23 275.903L1788.23 276.398L1788.23 276.892L1788.23 277.383L1788.23 277.874L1788.23 278.362L1788.23 278.849L1788.23 279.334L1788.23 279.818L1788.23 280.299L1788.23 280.78L1788.23 281.258L1788.23 281.735L1788.23 282.209L1788.23 282.683L1788.23 283.154L1788.23 283.623L1788.23 284.091L1788.23 284.557L1788.23 285.021L1788.23 285.483L1788.23 285.944L1788.23 286.402L1788.23 286.859L1788.23 287.313L1788.23 287.766L1788.23 288.217L1788.23 288.666L1788.23 289.112L1788.23 289.557L1788.23 290L1788.23 290.441L1788.23 290.879L1788.23 291.316L1788.23 291.751L1788.23 292.183L1788.23 292.614L1788.23 293.042L1788.23 293.468L1788.23 293.892L1788.23 294.314L1788.23 294.734L1788.23 295.152L1788.23 295.567L1788.23 295.98L1788.23 296.391L1788.23 296.8L1788.23 297.206L1788.23 297.61L1788.23 298.012L1788.23 298.412L1788.23 298.809L1788.23 299.204L1788.23 299.596L1788.23 299.987L1788.23 300.374L1788.23 300.76L1788.23 301.143L1788.23 301.523L1788.23 301.901L1788.23 302.277L1788.23 302.65L1788.23 303.021L1788.23 303.389L1788.23 303.755L1788.23 304.118L1788.23 304.479L1788.23 304.837L1788.23 305.193L1788.23 305.545L1788.23 305.896L1788.23 306.244L1788.23 306.589L1788.23 306.931L1788.23 307.271L1788.23 307.608L1788.23 307.942L1788.23 308.274L1788.23 308.603L1788.23 308.929L1788.23 309.253L1788.23 309.574L1788.23 309.891L1788.23 310.207L1788.23 310.519L1788.23 310.829L1788.23 311.135L1788.23 311.439L1788.23 311.74L1788.23 312.038L1788.23 312.333L1788.23 312.626L1788.23 312.915L1788.23 313.201L1788.23 313.485L1788.23 313.765L1788.23 314.043L1788.23 314.317L1788.23 314.589L1788.23 314.857L1788.23 315.122L1788.23 315.385L1788.23 315.644L1788.23 315.9L1788.23 316.153L1788.23 316.403L1788.23 316.65L1788.23 316.893L1788.23 317.134L1788.23 317.371L1788.23 317.605L1788.23 317.836L1788.23 318.064L1788.23 318.288L1788.23 318.509L1788.23 318.727L1788.23 318.941L1788.23 319.153L1788.23 319.361L1788.23 319.565L1788.23 319.767L1788.23 319.965L1788.23 320.159L1788.23 320.35L1788.23 320.538L1788.23 320.722L1788.23 320.903L1788.23 321.081L1788.23 321.255L1788.23 321.425L1788.23 321.592L1788.23 321.756L1788.23 321.916L1788.23 322.072L1788.23 322.225L1788.23 322.374L1788.23 322.52L1788.23 322.662L1797.23 322.662L1797.23 322.52L1797.23 322.374L1797.23 322.225L1797.23 322.072L1797.23 321.916L1797.23 321.756L1797.23 321.592L1797.23 321.425L1797.23 321.255L1797.23 321.081L1797.23 320.903L1797.23 320.722L1797.23 320.538L1797.23 320.35L1797.23 320.159L1797.23 319.965L1797.23 319.767L1797.23 319.565L1797.23 319.361L1797.23 319.153L1797.23 318.941L1797.23 318.727L1797.23 318.509L1797.23 318.288L1797.23 318.064L1797.23 317.836L1797.23 317.605L1797.23 317.371L1797.23 317.134L1797.23 316.893L1797.23 316.65L1797.23 316.403L1797.23 316.153L1797.23 315.9L1797.23 315.644L1797.23 315.385L1797.23 315.122L1797.23 314.857L1797.23 314.589L1797.23 314.317L1797.23 314.043L1797.23 313.765L1797.23 313.485L1797.23 313.201L1797.23 312.915L1797.23 312.626L1797.23 312.333L1797.23 312.038L1797.23 311.74L1797.23 311.439L1797.23 311.135L1797.23 310.829L1797.23 310.519L1797.23 310.207L1797.23 309.891L1797.23 309.574L1797.23 309.253L1797.23 308.929L1797.23 308.603L1797.23 308.274L1797.23 307.942L1797.23 307.608L1797.23 307.271L1797.23 306.931L1797.23 306.589L1797.23 306.244L1797.23 305.896L1797.23 305.545L1797.23 305.193L1797.23 304.837L1797.23 304.479L1797.23 304.118L1797.23 303.755L1797.23 303.389L1797.23 303.021L1797.23 302.65L1797.23 302.277L1797.23 301.901L1797.23 301.523L1797.23 301.143L1797.23 300.76L1797.23 300.374L1797.23 299.987L1797.23 299.596L1797.23 299.204L1797.23 298.809L1797.23 298.412L1797.23 298.012L1797.23 297.61L1797.23 297.206L1797.23 296.8L1797.23 296.391L1797.23 295.98L1797.23 295.567L1797.23 295.152L1797.23 294.734L1797.23 294.314L1797.23 293.892L1797.23 293.468L1797.23 293.042L1797.23 292.614L1797.23 292.183L1797.23 291.751L1797.23 291.316L1797.23 290.879L1797.23 290.441L1797.23 290L1797.23 289.557L1797.23 289.112L1797.23 288.666L1797.23 288.217L1797.23 287.766L1797.23 287.313L1797.23 286.859L1797.23 286.402L1797.23 285.944L1797.23 285.483L1797.23 285.021L1797.23 284.557L1797.23 284.091L1797.23 283.623L1797.23 283.154L1797.23 282.683L1797.23 282.209L1797.23 281.735L1797.23 281.258L1797.23 280.78L1797.23 280.299L1797.23 279.818L1797.23 279.334L1797.23 278.849L1797.23 278.362L1797.23 277.874L1797.23 277.383L1797.23 276.892L1797.23 276.398L1797.23 275.903L1797.23 275.407L1797.23 274.909L1797.23 274.409L1797.23 273.908L1797.23 273.405L1797.23 272.901L1797.23 272.395L1797.23 271.888L1797.23 271.38L1797.23 270.87L1797.23 270.358L1797.23 269.845L1797.23 269.331L1797.23 268.815L1797.23 268.298L1797.23 267.78L1797.23 267.26L1797.23 266.739L1797.23 266.217L1797.23 265.693L1797.23 265.168L1797.23 264.642L1797.23 264.115L1797.23 263.586L1797.23 263.056L1797.23 262.525L1797.23 261.993L1797.23 261.459L1797.23 260.925L1797.23 260.389L1797.23 259.852L1797.23 259.314L1797.23 258.775L1797.23 258.235L1797.23 257.694L1797.23 257.151L1797.23 256.608L1797.23 256.064L1797.23 255.518L1797.23 254.972L1797.23 254.425L1797.23 253.876L1797.23 253.327L1797.23 252.777L1797.23 252.226L1797.23 251.674L1797.23 251.121L1797.23 250.567L1797.23 250.012L1797.23 249.457L1797.23 248.901L1797.23 248.343L1797.23 247.785L1797.23 247.227L1797.23 246.667L1797.23 246.107L1797.23 245.546L1797.23 244.984L1797.23 244.422L1797.23 243.859L1797.23 243.295L1797.23 242.73L1797.23 242.165L1797.23 241.599L1797.23 241.033L1797.23 240.466L1797.23 239.898L1797.23 239.33L1797.23 238.762L1797.23 238.192L1797.23 237.622L1797.23 237.052L1797.23 236.481L1797.23 235.91L1797.23 235.338L1797.23 234.766L1797.23 234.193L1797.23 233.62L1797.23 233.046L1797.23 232.472L1797.23 231.898L1797.23 231.323L1797.23 230.748L1797.23 230.173L1797.23 229.597L1797.23 229.021L1797.23 228.445L1797.23 227.868L1797.23 227.291L1797.23 226.714L1797.23 226.137L1797.23 225.559L1797.23 224.981L1797.23 224.403L1797.23 223.825L1797.23 223.247L1797.23 222.668L1797.23 222.09L1797.23 221.511L1797.23 220.932L1797.23 220.353L1797.23 219.774L1797.23 219.195L1797.23 218.616L1797.23 218.037L1797.23 217.458L1797.23 216.879L1797.23 216.299L1797.23 215.72L1797.23 215.141L1797.23 214.562L1797.23 213.983L1797.23 213.405L1797.23 212.826L1797.23 212.247L1797.23 211.669L1797.23 211.091L1797.23 210.512L1797.23 209.934L1797.23 209.357L1797.23 208.779L1797.23 208.202L1797.23 207.625L1797.23 207.048L1797.23 206.471L1797.23 205.895L1797.23 205.319L1797.23 204.743L1797.23 204.168L1797.23 203.593L1797.23 203.018L1797.23 202.444L1797.23 201.87L1797.23 201.297L1797.23 200.724L1797.23 200.151L1797.23 199.579L1797.23 199.007L1797.23 198.436L1797.23 197.865L1797.23 197.295L1797.23 196.725L1797.23 196.156L1797.23 195.588L1797.23 195.02L1797.23 194.452L1797.23 193.885L1797.23 193.319L1797.23 192.753L1797.23 192.188L1797.23 191.624L1797.23 191.06L1797.23 190.497L1797.23 189.935L1797.23 189.374L1797.23 188.813L1797.23 188.253L1797.23 187.693L1797.23 187.135L1797.23 186.577L1797.23 186.02L1797.23 185.464L1797.23 184.909L1797.23 184.354L1797.23 183.801L1797.23 183.248L1797.23 182.696L1797.23 182.145L1797.23 181.595L1797.23 181.046L1797.23 180.498L1797.23 179.951L1797.23 179.405L1797.23 178.86L1797.23 178.316L1797.23 177.773L1797.23 177.23L1797.23 176.689L1797.23 176.15L1797.23 175.611L1797.23 175.073L1797.23 174.536L1797.23 174.001L1797.23 173.467L1797.23 172.933L1797.23 172.401L1797.23 171.871L1797.23 171.341L1797.23 170.813L1797.23 170.286L1797.23 169.76L1797.23 169.235L1797.23 168.712L1797.23 168.19L1797.23 167.669L1797.23 167.15L1797.23 166.631L1797.23 166.115L1797.23 165.599L1797.23 165.085L1797.23 164.573L1797.23 164.062L1797.23 163.552L1797.23 163.044L1797.23 162.537L1797.23 162.032L1797.23 161.528L1797.23 161.026L1797.23 160.525L1797.23 160.025L1797.23 159.528L1797.23 159.032L1797.23 158.537L1797.23 158.044L1797.23 157.553L1797.23 157.063L1797.23 156.575L1797.23 156.088L1797.23 155.603L1797.23 155.12L1797.23 154.639L1797.23 154.159L1797.23 153.681L1797.23 153.205L1797.23 152.731L1797.23 152.258L1797.23 151.787L1797.23 151.318L1797.23 150.85L1797.23 150.385L1797.23 149.921L1797.23 149.46L1797.23 149L1797.23 148.542L1797.23 148.086L1797.23 147.631L1797.23 147.179L1797.23 146.729L1797.23 146.281L1797.23 145.834L1797.23 145.39L1797.23 144.948L1797.23 144.507L1797.23 144.069L1797.23 143.633L1797.23 143.199L1797.23 142.767L1797.23 142.337L1797.23 141.909L1797.23 141.483L1797.23 141.06L1797.23 140.638L1797.23 140.219L1797.23 139.802L1797.23 139.387L1797.23 138.974L1797.23 138.564L1797.23 138.156L1797.23 137.75L1797.23 137.346L1797.23 136.945L1797.23 136.546L1797.23 136.149L1797.23 135.755L1797.23 135.363L1797.23 134.973L1797.23 134.586L1797.23 134.201L1797.23 133.819L1797.23 133.439L1797.23 133.061L1797.23 132.686L1797.23 132.314L1797.23 131.943L1797.23 131.576L1797.23 131.211L1797.23 130.848L1797.23 130.488L1797.23 130.13L1797.23 129.775L1797.23 129.423L1797.23 129.073L1797.23 128.726L1797.23 128.382L1797.23 128.04L1797.23 127.701L1797.23 127.364L1797.23 127.031L1797.23 126.7L1797.23 126.371L1797.23 126.046L1797.23 125.723L1797.23 125.403L1797.23 125.085L1797.23 124.771L1797.23 124.459L1797.23 124.15L1797.23 123.844L1797.23 123.541L1797.23 123.241L1797.23 122.943L1797.23 122.649L1797.23 122.357L1797.23 122.069L1797.23 121.783L1797.23 121.5L1797.23 121.22L1797.23 120.944L1797.23 120.67L1797.23 120.399L1797.23 120.132L1797.23 119.867L1797.23 119.605L1797.23 119.347L1797.23 119.091L1797.23 118.839L1797.23 118.59L1797.23 118.344L1797.23 118.101L1797.23 117.861L1797.23 117.625L1797.23 117.391L1797.23 117.161L1797.23 116.934L1797.23 116.711L1797.23 116.49L1797.23 116.273L1797.23 116.06L1797.23 115.849L1797.23 115.642L1797.23 115.438L1797.23 115.238L1797.23 115.04L1797.23 114.847L1797.23 114.656L1797.23 114.469L1797.23 114.286L1797.23 114.106L1797.23 113.929L1797.23 113.756L1797.23 113.586L1797.23 113.42L1797.23 113.257L1797.23 113.098L1797.23 112.943L1797.23 112.791L1797.23 112.642L1797.23 112.497L1797.23 112.356L1797.23 112.218L1797.23 112.084L1797.23 111.954L1797.23 111.827L1797.23 111.704L1797.23 111.585L1797.23 111.469L1797.23 111.357L1797.23 111.249L1797.23 111.144L1797.23 111.044L1797.23 110.947L1797.23 110.854L1797.23 110.764L1797.23 110.679L1797.23 110.597L1797.23 110.52L1797.23 110.446L1797.23 110.376L1797.23 110.31L1797.23 110.247L1797.23 110.189L1797.23 110.135L1797.23 110.084L1797.23 110.038L1797.23 109.995C1797.23 107.057 1797.86 105.489 1798.61 104.658C1799.26 103.928 1800.69 103 1804.23 103L1930.68 103L1930.68 94Z" fill="#858587"/>
<path opacity="0.1" fill-rule="evenodd" clip-rule="evenodd" d="M500.613 918.225C513.101 918.225 523.225 908.101 523.225 895.613C523.225 883.124 513.101 873 500.613 873C488.124 873 478 883.124 478 895.613C478 908.101 488.124 918.225 500.613 918.225ZM500.613 927.225C516.502 927.225 529.653 915.503 531.89 900.234L555.188 900.234V891.234L531.925 891.234C529.793 875.847 516.586 864 500.613 864C483.153 864 469 878.153 469 895.613C469 913.072 483.153 927.225 500.613 927.225ZM783.851 1033.68V907.229C783.851 902.149 782.48 897.832 779.187 894.892C775.994 892.041 771.814 891.234 767.855 891.234H767.813H767.766H767.716H767.662H767.603H767.541H767.475H767.405H767.331H767.253H767.172H767.086H766.997H766.904H766.807H766.706H766.602H766.494H766.382H766.266H766.147H766.024H765.897H765.767H765.632H765.495H765.354H765.209H765.06H764.908H764.753H764.593H764.431H764.264H764.095H763.922H763.745H763.565H763.381H763.194H763.004H762.81H762.613H762.413H762.209H762.002H761.791H761.577H761.36H761.14H760.916H760.689H760.459H760.226H759.989H759.75H759.507H759.261H759.012H758.759H758.504H758.245H757.984H757.719H757.452H757.181H756.907H756.63H756.35H756.068H755.782H755.493H755.202H754.907H754.61H754.31H754.006H753.7H753.392H753.08H752.765H752.448H752.128H751.805H751.48H751.151H750.82H750.486H750.15H749.811H749.469H749.124H748.777H748.428H748.075H747.72H747.363H747.003H746.64L746.275 891.234H745.907H745.537H745.165H744.789H744.412H744.032H743.649H743.265H742.877H742.488H742.096H741.701H741.305H740.906H740.504H740.101H739.695H739.287H738.876H738.464H738.049H737.632H737.213H736.791H736.368H735.942H735.514H735.084H734.652H734.218H733.782H733.343H732.903H732.461H732.016H731.57H731.122H730.671H730.219H729.765H729.309H728.851H728.391H727.929H727.466H727H726.533H726.064H725.593H725.12L724.646 891.234H724.169H723.691H723.212H722.73H722.247H721.762H721.276H720.788H720.298H719.807H719.314H718.819H718.323H717.825H717.326H716.825H716.323H715.819H715.314H714.807H714.299H713.789H713.278H712.765H712.251H711.736H711.219H710.701H710.182H709.661H709.139H708.616H708.091H707.565H707.038H706.51H705.98H705.449H704.917H704.384H703.85H703.314L702.778 891.234H702.24H701.701H701.161H700.62H700.078H699.535H698.991H698.446H697.9H697.353H696.805H696.255H695.706H695.155H694.603H694.05H693.497H692.942H692.387H691.831H691.274H690.716H690.157H689.598H689.038H688.477H687.916H687.353H686.79H686.227H685.662H685.097H684.532H683.965H683.399H682.831H682.263H681.694L681.125 891.234H680.556H679.985H679.415H678.843H678.272H677.7H677.127H676.554H675.98H675.407H674.832H674.258H673.683H673.107H672.532H671.956H671.379H670.803H670.226H669.649H669.072H668.494H667.916H667.338H666.76H666.182H665.603H665.025H664.446H663.867H663.288H662.709H662.13H661.551H660.972H660.393H659.814L659.235 891.234H658.656H658.077H657.498H656.919H656.34H655.761H655.182H654.604H654.026H653.447H652.869H652.292H651.714H651.137H650.56H649.983H649.406H648.83H648.254H647.678H647.102H646.527H645.953H645.378H644.804H644.231H643.658H643.085H642.513H641.941H641.37H640.799H640.228H639.658H639.089H638.52H637.952L637.385 891.234H636.818H636.251H635.685H635.12H634.556H633.992H633.429H632.866H632.305H631.744H631.183H630.624H630.065H629.507H628.95H628.394H627.838H627.284H626.73H626.177H625.625H625.074H624.524H623.974H623.426H622.879H622.332H621.787H621.243H620.699H620.157H619.616H619.076H618.537H617.999H617.462H616.926H616.391H615.858L615.326 891.234H614.795H614.265H613.736H613.209H612.682H612.158H611.634H611.112H610.591H610.071H609.552H609.035H608.52H608.005H607.493H606.981H606.471H605.962H605.455H604.95H604.445H603.943H603.442H602.942H602.444H601.947H601.452H600.959H600.467H599.977H599.489H599.002H598.517H598.033H597.551H597.071H596.593H596.116H595.641H595.168H594.697H594.227L593.759 891.234H593.294H592.83H592.367H591.907H591.449H590.992H590.537H590.085H589.634H589.185H588.738H588.294H587.851H587.41H586.971H586.535H586.1H585.667H585.237H584.809H584.382H583.958H583.536H583.117H582.699H582.284H581.871H581.46H581.051H580.645H580.24H579.839H579.439H579.042H578.647H578.254H577.864H577.476H577.091H576.708H576.327H575.949H575.574H575.2H574.83H574.461H574.096H573.732H573.372H573.014H572.658H572.305L571.955 891.234H571.607H571.262H570.92H570.58H570.243H569.908H569.577H569.248H568.921H568.598H568.277H567.959H567.644H567.332H567.022H566.715H566.412H566.111H565.813H565.517H565.225H564.936H564.649H564.366H564.086H563.808H563.534H563.262H562.994H562.728H562.466H562.207H561.951H561.698H561.448H561.201H560.957H560.717H560.48H560.246H560.015H559.787H559.563H559.342H559.124H558.909H558.698H558.49H558.285H558.084H557.886H557.692H557.5H557.313H557.128H556.947H556.77H556.596H556.426H556.259H556.095H555.935H555.779H555.626H555.476H555.331H555.189V900.234H555.331H555.476H555.626H555.779H555.935H556.095H556.259H556.426H556.596H556.77H556.947H557.128H557.313H557.5H557.692H557.886H558.084H558.285H558.49H558.698H558.909H559.124H559.342H559.563H559.787H560.015H560.246H560.48H560.717H560.957H561.201H561.448H561.698H561.951H562.207H562.466H562.728H562.994H563.262H563.534H563.808H564.086H564.366H564.649H564.936H565.225H565.517H565.813H566.111H566.412H566.715H567.022H567.332H567.644H567.959H568.277H568.598H568.921H569.248H569.577H569.908H570.243H570.58H570.92H571.262H571.607H571.955H572.305H572.658H573.014H573.372H573.732H574.096H574.461H574.83H575.2H575.574H575.949H576.327H576.708H577.091H577.476H577.864H578.254H578.647H579.042H579.439H579.839H580.24H580.645H581.051H581.46H581.871H582.284H582.699L583.117 900.234H583.536H583.958H584.382H584.809H585.237H585.667H586.1H586.535H586.971H587.41H587.851H588.294H588.738H589.185H589.634H590.085H590.537H590.992H591.449H591.907H592.367H592.83H593.294H593.759H594.227H594.697H595.168H595.641H596.116H596.593H597.071H597.551H598.033H598.517H599.002H599.489H599.977H600.467H600.959H601.452H601.947H602.444H602.942H603.442H603.943H604.445H604.95H605.455H605.962H606.471H606.981H607.493H608.005H608.52H609.035H609.552H610.071H610.591H611.112H611.634H612.158H612.682H613.209H613.736H614.265H614.795H615.326H615.858H616.391H616.926H617.462H617.999H618.537H619.076H619.616H620.157H620.699H621.243H621.787H622.332H622.879H623.426H623.974H624.524H625.074H625.625H626.177L626.73 900.234H627.284H627.838H628.394H628.95H629.507H630.065H630.624H631.183H631.744H632.305H632.866H633.429H633.992H634.556H635.12H635.685H636.251H636.818H637.385H637.952H638.52H639.089H639.658H640.228H640.799H641.37H641.941H642.513H643.085H643.658H644.231H644.804H645.378H645.953H646.527H647.102H647.678H648.254H648.83H649.406H649.983H650.56H651.137H651.714H652.292H652.869H653.447H654.026H654.604H655.182H655.761H656.34H656.919H657.498H658.077H658.656H659.235H659.814H660.393H660.972H661.551H662.13H662.709H663.288H663.867H664.446H665.025H665.603H666.182H666.76H667.338H667.916H668.494H669.072H669.649H670.226L670.803 900.234H671.379H671.956H672.532H673.107H673.683H674.258H674.832H675.407H675.98H676.554H677.127H677.7H678.272H678.843H679.415H679.985H680.556H681.125H681.694H682.263H682.831H683.399H683.965H684.532H685.097H685.662H686.227H686.79H687.353H687.916H688.477H689.038H689.598H690.157H690.716H691.274H691.831H692.387H692.942H693.497H694.05H694.603H695.155H695.706H696.255H696.805H697.353H697.9H698.446H698.991H699.535H700.078H700.62H701.161H701.701H702.24H702.778H703.314H703.85H704.384H704.917H705.449H705.98H706.51H707.038H707.565H708.091H708.616H709.139H709.661H710.182H710.701H711.219H711.736H712.251H712.765H713.278H713.789L714.299 900.234H714.807H715.314H715.819H716.323H716.825H717.326H717.825H718.323H718.819H719.314H719.807H720.298H720.788H721.276H721.762H722.247H722.73H723.212H723.691H724.169H724.646H725.12H725.593H726.064H726.533H727H727.466H727.929H728.391H728.851H729.309H729.765H730.219H730.671H731.122H731.57H732.016H732.461H732.903H733.343H733.782H734.218H734.652H735.084H735.514H735.942H736.368H736.791H737.213H737.632H738.049H738.464H738.876H739.287H739.695H740.101H740.504H740.906H741.305H741.701H742.096H742.488H742.877H743.265H743.649H744.032H744.412H744.789H745.165H745.537H745.907H746.275H746.64H747.003H747.363H747.72H748.075H748.428H748.777H749.124H749.469H749.811H750.15H750.486H750.82H751.151H751.48H751.805H752.128H752.448H752.765H753.08H753.392H753.7H754.006H754.31H754.61H754.907H755.202H755.493H755.782H756.068H756.35H756.63H756.907H757.181H757.452L757.719 900.234H757.984H758.245H758.504H758.759H759.012H759.261H759.507H759.75H759.989H760.226H760.459H760.689H760.916H761.14H761.36H761.577H761.791H762.002H762.209H762.413H762.613H762.81H763.004H763.194H763.381H763.565H763.745H763.922H764.095H764.264H764.431H764.593H764.753H764.908H765.06H765.209H765.354H765.495H765.632H765.767H765.897H766.024H766.147H766.266H766.382H766.494H766.602H766.706H766.807H766.904H766.997H767.086H767.172H767.253H767.331H767.405H767.475H767.541H767.603H767.662H767.716H767.766H767.813H767.855C770.793 900.234 772.361 900.863 773.192 901.605C773.923 902.257 774.851 903.688 774.851 907.229V1033.68H783.851Z" fill="#858587"/>
</svg>
