<svg width="1920" height="1080" viewBox="0 0 1920 1080" fill="none" xmlns="http://www.w3.org/2000/svg">
<g id="Decorate">
<path id="Cloud 2" opacity="0.1" d="M1366.79 976.303L1364.08 973.16L1366.79 976.302C1391.46 955.012 1422.93 943.254 1455.51 943.15C1521.87 943.153 1576.81 992.516 1582.78 1055.95L1583.09 1059.21L1586.33 1059.67C1624.91 1065.12 1654.85 1097.41 1654.85 1136.86C1654.85 1180.16 1618.73 1214.85 1574.73 1214.85H1348.18C1297.62 1214.85 1256.15 1174.99 1256.15 1125.28C1256.15 1082.47 1286.88 1046.9 1327.73 1037.87L1330.47 1037.27L1330.93 1034.5C1334.37 1013.73 1347.83 992.652 1366.79 976.303ZM1347.21 1044.76V1052.45L1339.59 1053.29C1302.06 1057.4 1273.29 1088.28 1273.29 1125.28C1273.29 1165.02 1306.54 1197.7 1348.18 1197.7H1574.73C1609.8 1197.7 1637.71 1170.19 1637.71 1136.86C1637.71 1103.51 1609.8 1076 1574.73 1076H1566.16V1067.42C1566.16 1067.42 1566.16 1067.42 1566.16 1067.42C1566.18 1008.5 1516.89 960.305 1455.5 960.305H1455.49L1455.48 960.305C1429.96 960.407 1405.22 968.69 1384.84 983.817V983.365L1377.98 989.288C1358.15 1006.4 1347.21 1027.49 1347.21 1044.76Z" fill="#858587" stroke="#2A2A2A" stroke-width="8.3"/>
<path id="Cloud 1" opacity="0.1" d="M259.778 401.945L260.085 405.207L263.329 405.665C301.907 411.121 331.85 443.409 331.85 482.858C331.85 526.16 295.727 560.85 251.726 560.85H25.1792C-25.3844 560.85 -66.85 520.994 -66.85 471.276C-66.85 428.469 -36.1215 392.896 4.73232 383.87L7.47286 383.265L7.93137 380.496C11.3698 359.732 24.8259 338.652 43.7876 322.303L41.0776 319.16L43.7888 322.302C68.4615 301.012 99.9287 289.254 132.506 289.15C198.874 289.153 253.806 338.516 259.778 401.945ZM24.2089 390.764V398.449L16.5871 399.289C16.5863 399.289 16.5855 399.289 16.5847 399.29C-20.9429 403.403 -49.7125 434.279 -49.7125 471.276C-49.7125 511.02 -16.4554 543.695 25.1792 543.695H251.726C286.798 543.695 314.712 516.186 314.712 482.858C314.712 449.506 286.799 421.995 251.726 421.995H243.157V413.42C243.157 413.419 243.157 413.419 243.157 413.418C243.182 354.503 193.894 306.305 132.5 306.305H132.492L132.483 306.305C106.957 306.407 82.2173 314.69 61.8383 329.817V329.365L54.9766 335.288C35.15 352.402 24.2089 373.488 24.2089 390.764Z" fill="#858587" stroke="#2A2A2A" stroke-width="8.3"/>
<path id="item 2" opacity="0.1" fill-rule="evenodd" clip-rule="evenodd" d="M650.443 1056.63C650.529 1044.15 640.476 1033.95 627.987 1033.87C615.499 1033.78 605.305 1043.83 605.219 1056.32C605.132 1068.81 615.186 1079 627.674 1079.09C640.162 1079.18 650.356 1069.12 650.443 1056.63ZM659.443 1056.7C659.553 1040.81 647.922 1027.58 632.669 1025.23L632.831 1001.94L623.831 1001.87L623.67 1025.14C608.268 1027.16 596.33 1040.29 596.219 1056.26C596.098 1073.72 610.153 1087.97 627.612 1088.09C645.071 1088.21 659.322 1074.16 659.443 1056.7ZM767.857 774.203L641.409 773.327C636.329 773.292 632.003 774.633 629.04 777.906C626.167 781.079 625.331 785.253 625.303 789.212L625.303 789.254L625.303 789.3L625.302 789.351L625.302 789.405L625.302 789.463L625.301 789.526L625.301 789.592L625.3 789.662L625.3 789.736L625.299 789.813L625.299 789.895L625.298 789.981L625.297 790.07L625.297 790.163L625.296 790.26L625.295 790.361L625.295 790.465L625.294 790.573L625.293 790.685L625.292 790.801L625.292 790.92L625.291 791.043L625.29 791.17L625.289 791.3L625.288 791.434L625.287 791.572L625.286 791.713L625.285 791.858L625.284 792.007L625.283 792.159L625.282 792.314L625.281 792.473L625.28 792.636L625.278 792.802L625.277 792.972L625.276 793.145L625.275 793.322L625.274 793.502L625.272 793.685L625.271 793.872L625.27 794.063L625.268 794.256L625.267 794.454L625.266 794.654L625.264 794.858L625.263 795.065L625.261 795.276L625.26 795.489L625.258 795.706L625.257 795.927L625.255 796.15L625.254 796.377L625.252 796.607L625.25 796.841L625.249 797.077L625.247 797.317L625.246 797.56L625.244 797.806L625.242 798.055L625.24 798.307L625.239 798.563L625.237 798.821L625.235 799.083L625.233 799.347L625.231 799.615L625.229 799.886L625.228 800.16L625.226 800.436L625.224 800.716L625.222 800.999L625.22 801.285L625.218 801.573L625.216 801.865L625.214 802.159L625.212 802.457L625.21 802.757L625.207 803.06L625.205 803.366L625.203 803.675L625.201 803.987L625.199 804.301L625.197 804.618L625.194 804.939L625.192 805.261L625.19 805.587L625.188 805.915L625.185 806.246L625.183 806.58L625.181 806.917L625.178 807.256L625.176 807.598L625.174 807.942L625.171 808.289L625.169 808.639L625.166 808.991L625.164 809.346L625.161 809.704L625.159 810.064L625.156 810.426L625.154 810.791L625.151 811.159L625.149 811.529L625.146 811.902L625.144 812.277L625.141 812.654L625.138 813.034L625.136 813.417L625.133 813.802L625.13 814.189L625.128 814.579L625.125 814.971L625.122 815.365L625.119 815.762L625.117 816.161L625.114 816.562L625.111 816.965L625.108 817.371L625.105 817.779L625.103 818.19L625.1 818.602L625.097 819.017L625.094 819.434L625.091 819.854L625.088 820.275L625.085 820.699L625.082 821.124L625.079 821.552L625.076 821.982L625.073 822.414L625.07 822.848L625.067 823.284L625.064 823.723L625.061 824.163L625.058 824.605L625.055 825.05L625.052 825.496L625.049 825.944L625.046 826.395L625.043 826.847L625.039 827.301L625.036 827.757L625.033 828.215L625.03 828.675L625.027 829.137L625.024 829.6L625.02 830.066L625.017 830.533L625.014 831.002L625.011 831.473L625.007 831.946L625.004 832.42L625.001 832.896L624.997 833.374L624.994 833.854L624.991 834.335L624.987 834.819L624.984 835.303L624.981 835.79L624.977 836.278L624.974 836.768L624.971 837.259L624.967 837.752L624.964 838.247L624.96 838.743L624.957 839.24L624.953 839.74L624.95 840.241L624.946 840.743L624.943 841.247L624.939 841.752L624.936 842.259L624.932 842.767L624.929 843.277L624.925 843.788L624.922 844.3L624.918 844.814L624.915 845.33L624.911 845.846L624.907 846.364L624.904 846.884L624.9 847.404L624.897 847.926L624.893 848.45L624.889 848.974L624.886 849.5L624.882 850.027L624.878 850.556L624.875 851.085L624.871 851.616L624.867 852.148L624.864 852.681L624.86 853.216L624.856 853.751L624.853 854.288L624.849 854.825L624.845 855.364L624.841 855.904L624.838 856.445L624.834 856.987L624.83 857.53L624.826 858.074L624.823 858.619L624.819 859.165L624.815 859.713L624.811 860.261L624.807 860.81L624.804 861.36L624.8 861.911L624.796 862.462L624.792 863.015L624.788 863.569L624.784 864.123L624.781 864.678L624.777 865.234L624.773 865.791L624.769 866.349L624.765 866.908L624.761 867.467L624.757 868.027L624.754 868.588L624.75 869.149L624.746 869.712L624.742 870.275L624.738 870.838L624.734 871.403L624.73 871.968L624.726 872.533L624.722 873.099L624.718 873.666L624.714 874.234L624.71 874.802L624.707 875.37L624.703 875.94L624.699 876.509L624.695 877.079L624.691 877.65L624.687 878.221L624.683 878.793L624.679 879.365L624.675 879.938L624.671 880.511L624.667 881.084L624.663 881.658L624.659 882.232L624.655 882.807L624.651 883.382L624.647 883.957L624.643 884.533L624.639 885.109L624.635 885.685L624.631 886.262L624.627 886.839L624.623 887.416L624.619 887.993L624.615 888.57L624.611 889.148L624.607 889.726L624.603 890.304L624.599 890.883L624.595 891.461L624.591 892.04L624.587 892.618L624.583 893.197L624.579 893.776L624.575 894.355L624.571 894.934L624.567 895.513L624.563 896.092L624.559 896.671L624.555 897.25L624.551 897.83L624.547 898.409L624.543 898.988L624.539 899.567L624.535 900.146L624.531 900.724L624.527 901.303L624.523 901.882L624.519 902.46L624.515 903.039L624.511 903.617L624.507 904.195L624.503 904.772L624.499 905.35L624.495 905.927L624.491 906.505L624.487 907.081L624.483 907.658L624.479 908.234L624.475 908.81L624.471 909.386L624.467 909.962L624.463 910.537L624.459 911.111L624.455 911.686L624.451 912.26L624.447 912.833L624.443 913.406L624.439 913.979L624.435 914.551L624.431 915.123L624.427 915.694L624.423 916.265L624.419 916.836L624.415 917.405L624.411 917.975L624.407 918.543L624.404 919.112L624.4 919.679L624.396 920.246L624.392 920.813L624.388 921.378L624.384 921.943L624.38 922.508L624.376 923.072L624.372 923.635L624.368 924.197L624.364 924.759L624.361 925.32L624.357 925.88L624.353 926.44L624.349 926.998L624.345 927.556L624.341 928.113L624.337 928.67L624.333 929.225L624.33 929.78L624.326 930.334L624.322 930.887L624.318 931.439L624.314 931.99L624.311 932.54L624.307 933.089L624.303 933.637L624.299 934.185L624.295 934.731L624.292 935.276L624.288 935.821L624.284 936.364L624.28 936.906L624.277 937.448L624.273 937.988L624.269 938.527L624.265 939.065L624.262 939.602L624.258 940.137L624.254 940.672L624.25 941.205L624.247 941.738L624.243 942.269L624.239 942.799L624.236 943.327L624.232 943.855L624.228 944.381L624.225 944.906L624.221 945.429L624.218 945.952L624.214 946.473L624.21 946.992L624.207 947.511L624.203 948.028L624.2 948.543L624.196 949.058L624.193 949.57L624.189 950.082L624.185 950.592L624.182 951.101L624.178 951.608L624.175 952.113L624.171 952.617L624.168 953.12L624.164 953.621L624.161 954.121L624.158 954.619L624.154 955.116L624.151 955.61L624.147 956.104L624.144 956.596L624.14 957.086L624.137 957.574L624.134 958.061L624.13 958.546L624.127 959.03L624.124 959.512L624.12 959.992L624.117 960.47L624.114 960.947L624.11 961.422L624.107 961.895L624.104 962.366L624.101 962.836L624.097 963.303L624.094 963.769L624.091 964.233L624.088 964.695L624.085 965.156L624.081 965.614L624.078 966.071L624.075 966.525L624.072 966.978L624.069 967.429L624.066 967.877L624.063 968.324L624.06 968.769L624.056 969.212L624.053 969.653L624.05 970.091L624.047 970.528L624.044 970.963L624.041 971.395L624.038 971.826L624.035 972.254L624.032 972.68L624.03 973.104L624.027 973.526L624.024 973.946L624.021 974.363L624.018 974.779L624.015 975.192L624.012 975.603L624.009 976.011L624.007 976.418L624.004 976.822L624.001 977.224L623.998 977.623L623.995 978.021L623.993 978.415L623.99 978.808L623.987 979.198L623.985 979.586L623.982 979.971L623.979 980.354L623.977 980.735L623.974 981.113L623.971 981.489L623.969 981.862L623.966 982.233L623.964 982.601L623.961 982.967L623.959 983.33L623.956 983.69L623.954 984.049L623.951 984.404L623.949 984.757L623.946 985.107L623.944 985.455L623.942 985.8L623.939 986.143L623.937 986.482L623.935 986.819L623.932 987.154L623.93 987.485L623.928 987.814L623.925 988.141L623.923 988.464L623.921 988.785L623.919 989.103L623.917 989.418L623.914 989.73L623.912 990.04L623.91 990.347L623.908 990.65L623.906 990.951L623.904 991.249L623.902 991.545L623.9 991.837L623.898 992.126L623.896 992.413L623.894 992.696L623.892 992.976L623.89 993.254L623.888 993.528L623.886 993.8L623.884 994.068L623.882 994.334L623.881 994.596L623.879 994.855L623.877 995.111L623.875 995.364L623.874 995.614L623.872 995.861L623.87 996.105L623.869 996.345L623.867 996.582L623.865 996.816L623.864 997.047L623.862 997.275L623.861 997.499L623.859 997.72L623.857 997.938L623.856 998.153L623.855 998.364L623.853 998.572L623.852 998.777L623.85 998.978L623.849 999.176L623.848 999.37L623.846 999.561L623.845 999.749L623.844 999.933L623.842 1000.11L623.841 1000.29L623.84 1000.47L623.839 1000.64L623.838 1000.8L623.837 1000.97L623.835 1001.13L623.834 1001.28L623.833 1001.44L623.832 1001.59L623.831 1001.73L623.83 1001.87L632.83 1001.94L632.831 1001.79L632.832 1001.65L632.833 1001.5L632.834 1001.35L632.835 1001.19L632.836 1001.03L632.837 1000.87L632.839 1000.7L632.84 1000.53L632.841 1000.35L632.842 1000.18L632.843 999.996L632.845 999.811L632.846 999.624L632.847 999.433L632.849 999.238L632.85 999.04L632.851 998.839L632.853 998.634L632.854 998.426L632.856 998.215L632.857 998L632.859 997.783L632.86 997.561L632.862 997.337L632.863 997.109L632.865 996.879L632.867 996.645L632.868 996.407L632.87 996.167L632.872 995.923L632.873 995.676L632.875 995.427L632.877 995.174L632.879 994.917L632.88 994.658L632.882 994.396L632.884 994.131L632.886 993.862L632.888 993.591L632.89 993.316L632.892 993.039L632.894 992.758L632.896 992.475L632.898 992.189L632.9 991.899L632.902 991.607L632.904 991.312L632.906 991.014L632.908 990.713L632.91 990.409L632.912 990.102L632.914 989.793L632.916 989.48L632.918 989.165L632.921 988.847L632.923 988.527L632.925 988.203L632.927 987.877L632.93 987.548L632.932 987.216L632.934 986.882L632.937 986.545L632.939 986.205L632.941 985.862L632.944 985.517L632.946 985.17L632.949 984.819L632.951 984.466L632.953 984.111L632.956 983.753L632.958 983.392L632.961 983.029L632.964 982.663L632.966 982.295L632.969 981.924L632.971 981.551L632.974 981.175L632.976 980.797L632.979 980.417L632.982 980.034L632.984 979.648L632.987 979.26L632.99 978.87L632.993 978.478L632.995 978.083L632.998 977.686L633.001 977.286L633.004 976.884L633.006 976.48L633.009 976.074L633.012 975.665L633.015 975.254L633.018 974.841L633.021 974.426L633.023 974.008L633.026 973.588L633.029 973.167L633.032 972.742L633.035 972.316L633.038 971.888L633.041 971.457L633.044 971.025L633.047 970.59L633.05 970.154L633.053 969.715L633.056 969.274L633.059 968.831L633.062 968.387L633.066 967.94L633.069 967.491L633.072 967.04L633.075 966.588L633.078 966.133L633.081 965.676L633.084 965.218L633.088 964.758L633.091 964.296L633.094 963.831L633.097 963.366L633.1 962.898L633.104 962.428L633.107 961.957L633.11 961.484L633.114 961.009L633.117 960.532L633.12 960.054L633.123 959.574L633.127 959.092L633.13 958.609L633.134 958.123L633.137 957.637L633.14 957.148L633.144 956.658L633.147 956.166L633.15 955.673L633.154 955.178L633.157 954.681L633.161 954.183L633.164 953.684L633.168 953.183L633.171 952.68L633.175 952.176L633.178 951.67L633.182 951.163L633.185 950.654L633.189 950.144L633.192 949.633L633.196 949.12L633.199 948.606L633.203 948.09L633.207 947.573L633.21 947.055L633.214 946.535L633.217 946.014L633.221 945.492L633.225 944.968L633.228 944.443L633.232 943.917L633.236 943.39L633.239 942.861L633.243 942.331L633.247 941.8L633.25 941.268L633.254 940.734L633.258 940.2L633.261 939.664L633.265 939.127L633.269 938.589L633.273 938.05L633.276 937.51L633.28 936.969L633.284 936.426L633.288 935.883L633.291 935.339L633.295 934.793L633.299 934.247L633.303 933.7L633.306 933.151L633.31 932.602L633.314 932.052L633.318 931.501L633.322 930.949L633.326 930.396L633.329 929.842L633.333 929.288L633.337 928.732L633.341 928.176L633.345 927.619L633.349 927.061L633.353 926.502L633.356 925.943L633.36 925.382L633.364 924.821L633.368 924.26L633.372 923.697L633.376 923.134L633.38 922.57L633.384 922.006L633.388 921.441L633.392 920.875L633.395 920.308L633.399 919.741L633.403 919.174L633.407 918.606L633.411 918.037L633.415 917.468L633.419 916.898L633.423 916.328L633.427 915.757L633.431 915.185L633.435 914.614L633.439 914.041L633.443 913.469L633.447 912.895L633.451 912.322L633.455 911.748L633.459 911.174L633.463 910.599L633.467 910.024L633.471 909.448L633.475 908.873L633.479 908.297L633.483 907.72L633.487 907.144L633.491 906.567L633.495 905.99L633.499 905.412L633.503 904.835L633.507 904.257L633.511 903.679L633.515 903.101L633.519 902.523L633.523 901.944L633.527 901.365L633.531 900.787L633.535 900.208L633.539 899.629L633.543 899.05L633.547 898.471L633.551 897.892L633.555 897.313L633.559 896.734L633.563 896.155L633.567 895.575L633.571 894.996L633.575 894.417L633.579 893.838L633.583 893.259L633.587 892.681L633.591 892.102L633.595 891.523L633.599 890.945L633.603 890.367L633.607 889.789L633.611 889.211L633.615 888.633L633.619 888.055L633.623 887.478L633.627 886.901L633.631 886.324L633.635 885.748L633.639 885.171L633.643 884.595L633.647 884.02L633.651 883.444L633.655 882.869L633.659 882.295L633.663 881.72L633.667 881.147L633.671 880.573L633.675 880L633.679 879.428L633.683 878.855L633.687 878.284L633.691 877.712L633.694 877.142L633.698 876.572L633.702 876.002L633.706 875.433L633.71 874.864L633.714 874.296L633.718 873.729L633.722 873.162L633.726 872.596L633.73 872.03L633.734 871.465L633.738 870.901L633.742 870.337L633.746 869.774L633.749 869.212L633.753 868.65L633.757 868.089L633.761 867.529L633.765 866.97L633.769 866.411L633.773 865.854L633.777 865.297L633.78 864.741L633.784 864.185L633.788 863.631L633.792 863.077L633.796 862.525L633.8 861.973L633.803 861.422L633.807 860.872L633.811 860.323L633.815 859.775L633.819 859.228L633.822 858.682L633.826 858.137L633.83 857.592L633.834 857.049L633.837 856.507L633.841 855.966L633.845 855.426L633.849 854.888L633.852 854.35L633.856 853.813L633.86 853.278L633.863 852.744L633.867 852.21L633.871 851.678L633.875 851.148L633.878 850.618L633.882 850.09L633.886 849.563L633.889 849.037L633.893 848.512L633.896 847.989L633.9 847.467L633.904 846.946L633.907 846.427L633.911 845.909L633.914 845.392L633.918 844.877L633.922 844.363L633.925 843.85L633.929 843.339L633.932 842.829L633.936 842.321L633.939 841.814L633.943 841.309L633.946 840.805L633.95 840.303L633.953 839.802L633.957 839.303L633.96 838.805L633.963 838.309L633.967 837.814L633.97 837.321L633.974 836.83L633.977 836.34L633.98 835.852L633.984 835.366L633.987 834.881L633.991 834.398L633.994 833.916L633.997 833.437L634.001 832.959L634.004 832.482L634.007 832.008L634.01 831.535L634.014 831.064L634.017 830.595L634.02 830.128L634.023 829.663L634.027 829.199L634.03 828.737L634.033 828.277L634.036 827.819L634.039 827.363L634.042 826.909L634.046 826.457L634.049 826.007L634.052 825.558L634.055 825.112L634.058 824.668L634.061 824.225L634.064 823.785L634.067 823.347L634.07 822.911L634.073 822.476L634.076 822.044L634.079 821.614L634.082 821.187L634.085 820.761L634.088 820.337L634.091 819.916L634.094 819.497L634.097 819.08L634.1 818.665L634.102 818.252L634.105 817.842L634.108 817.434L634.111 817.028L634.114 816.624L634.116 816.223L634.119 815.824L634.122 815.427L634.125 815.033L634.127 814.641L634.13 814.251L634.133 813.864L634.135 813.479L634.138 813.097L634.141 812.717L634.143 812.339L634.146 811.964L634.149 811.592L634.151 811.221L634.154 810.854L634.156 810.489L634.159 810.126L634.161 809.766L634.164 809.408L634.166 809.054L634.169 808.701L634.171 808.351L634.173 808.004L634.176 807.66L634.178 807.318L634.18 806.979L634.183 806.643L634.185 806.309L634.187 805.978L634.19 805.649L634.192 805.324L634.194 805.001L634.196 804.681L634.199 804.363L634.201 804.049L634.203 803.737L634.205 803.428L634.207 803.122L634.209 802.819L634.211 802.519L634.213 802.222L634.215 801.927L634.217 801.636L634.219 801.347L634.221 801.061L634.223 800.778L634.225 800.499L634.227 800.222L634.229 799.948L634.231 799.677L634.233 799.41L634.235 799.145L634.237 798.884L634.238 798.625L634.24 798.37L634.242 798.117L634.244 797.868L634.245 797.622L634.247 797.379L634.249 797.14L634.25 796.903L634.252 796.67L634.253 796.44L634.255 796.213L634.257 795.989L634.258 795.769L634.26 795.552L634.261 795.338L634.263 795.127L634.264 794.92L634.265 794.716L634.267 794.516L634.268 794.319L634.27 794.125L634.271 793.935L634.272 793.748L634.273 793.564L634.275 793.384L634.276 793.208L634.277 793.034L634.278 792.865L634.279 792.698L634.281 792.536L634.282 792.377L634.283 792.221L634.284 792.069L634.285 791.921L634.286 791.776L634.287 791.634L634.288 791.497L634.289 791.363L634.29 791.232L634.29 791.106L634.291 790.982L634.292 790.863L634.293 790.747L634.294 790.636L634.294 790.527L634.295 790.423L634.296 790.322L634.297 790.225L634.297 790.132L634.298 790.043L634.298 789.957L634.299 789.876L634.299 789.798L634.3 789.724L634.3 789.654L634.301 789.588L634.301 789.526L634.302 789.468L634.302 789.413L634.303 789.363L634.303 789.316L634.303 789.274C634.323 786.336 634.964 784.772 635.711 783.946C636.368 783.221 637.806 782.303 641.347 782.327L767.794 783.203L767.857 774.203Z" fill="#858587"/>
<path id="item 1" opacity="0.1" fill-rule="evenodd" clip-rule="evenodd" d="M1784.39 94.4545C1771.9 94.4545 1761.77 104.578 1761.77 117.067C1761.77 129.556 1771.9 139.68 1784.39 139.68C1796.88 139.68 1807 129.556 1807 117.067C1807 104.578 1796.88 94.4545 1784.39 94.4545ZM1784.39 85.4545C1769.92 85.4545 1757.72 95.1767 1753.96 108.445L1729.78 108.445L1729.78 117.445L1752.78 117.445C1752.98 134.73 1767.05 148.68 1784.39 148.68C1801.85 148.68 1816 134.526 1816 117.067C1816 99.6079 1801.85 85.4545 1784.39 85.4545ZM1501.12 -25L1501.12 101.45C1501.12 106.531 1502.49 110.848 1505.79 113.788C1508.98 116.638 1513.16 117.446 1517.12 117.446L1517.16 117.446L1517.21 117.446L1517.26 117.446L1517.31 117.446L1517.37 117.446L1517.43 117.446L1517.5 117.446L1517.57 117.446L1517.64 117.446L1517.72 117.446L1517.8 117.446L1517.89 117.446L1517.98 117.446L1518.07 117.446L1518.17 117.446L1518.27 117.446L1518.37 117.446L1518.48 117.446L1518.59 117.446L1518.71 117.446L1518.83 117.446L1518.95 117.446L1519.08 117.446L1519.21 117.446L1519.34 117.446L1519.48 117.446L1519.62 117.446L1519.76 117.446L1519.91 117.446L1520.06 117.446L1520.22 117.446L1520.38 117.446L1520.54 117.446L1520.71 117.446L1520.88 117.446L1521.05 117.446L1521.23 117.446L1521.41 117.446L1521.59 117.446L1521.78 117.446L1521.97 117.446L1522.16 117.446L1522.36 117.446L1522.56 117.446L1522.76 117.446L1522.97 117.446L1523.18 117.446L1523.39 117.446L1523.61 117.446L1523.83 117.446L1524.06 117.446L1524.28 117.446L1524.51 117.446L1524.75 117.446L1524.98 117.446L1525.22 117.446L1525.47 117.446L1525.71 117.446L1525.96 117.446L1526.21 117.446L1526.47 117.446L1526.73 117.446L1526.99 117.446L1527.25 117.446L1527.52 117.446L1527.79 117.446L1528.07 117.446L1528.34 117.446L1528.62 117.446L1528.9 117.446L1529.19 117.446L1529.48 117.446L1529.77 117.446L1530.06 117.446L1530.36 117.446L1530.66 117.446L1530.97 117.446L1531.27 117.446L1531.58 117.446L1531.89 117.446L1532.21 117.446L1532.52 117.446L1532.84 117.446L1533.17 117.446L1533.49 117.446L1533.82 117.446L1534.15 117.446L1534.49 117.446L1534.82 117.446L1535.16 117.446L1535.5 117.446L1535.85 117.446L1536.2 117.446L1536.54 117.446L1536.9 117.446L1537.25 117.446L1537.61 117.446L1537.97 117.446L1538.33 117.446L1538.7 117.446L1539.06 117.446L1539.44 117.446L1539.81 117.446L1540.18 117.446L1540.56 117.446L1540.94 117.446L1541.32 117.446L1541.71 117.446L1542.09 117.446L1542.48 117.446L1542.88 117.446L1543.27 117.446L1543.67 117.446L1544.07 117.446L1544.47 117.446L1544.87 117.446L1545.28 117.446L1545.69 117.446L1546.1 117.446L1546.51 117.446L1546.92 117.446L1547.34 117.446L1547.76 117.446L1548.18 117.446L1548.6 117.446L1549.03 117.446L1549.46 117.446L1549.89 117.446L1550.32 117.446L1550.75 117.446L1551.19 117.446L1551.63 117.446L1552.07 117.446L1552.51 117.446L1552.96 117.446L1553.4 117.446L1553.85 117.446L1554.3 117.446L1554.75 117.446L1555.21 117.446L1555.66 117.446L1556.12 117.446L1556.58 117.446L1557.04 117.446L1557.51 117.446L1557.97 117.446L1558.44 117.446L1558.91 117.446L1559.38 117.446L1559.85 117.446L1560.33 117.446L1560.8 117.446L1561.28 117.446L1561.76 117.446L1562.24 117.446L1562.73 117.446L1563.21 117.446L1563.7 117.446L1564.18 117.446L1564.67 117.446L1565.17 117.446L1565.66 117.446L1566.15 117.446L1566.65 117.446L1567.15 117.446L1567.65 117.446L1568.15 117.446L1568.65 117.446L1569.15 117.446L1569.66 117.446L1570.17 117.446L1570.67 117.446L1571.18 117.446L1571.69 117.446L1572.21 117.446L1572.72 117.446L1573.24 117.446L1573.75 117.446L1574.27 117.446L1574.79 117.446L1575.31 117.446L1575.83 117.446L1576.36 117.446L1576.88 117.446L1577.41 117.446L1577.93 117.446L1578.46 117.446L1578.99 117.446L1579.52 117.446L1580.06 117.446L1580.59 117.446L1581.12 117.446L1581.66 117.446L1582.19 117.446L1582.73 117.446L1583.27 117.446L1583.81 117.446L1584.35 117.446L1584.89 117.446L1585.44 117.446L1585.98 117.446L1586.53 117.446L1587.07 117.446L1587.62 117.446L1588.17 117.446L1588.72 117.446L1589.27 117.446L1589.82 117.446L1590.37 117.446L1590.92 117.446L1591.48 117.446L1592.03 117.446L1592.59 117.446L1593.14 117.446L1593.7 117.446L1594.26 117.446L1594.81 117.446L1595.37 117.446L1595.93 117.446L1596.5 117.446L1597.06 117.446L1597.62 117.446L1598.18 117.446L1598.75 117.446L1599.31 117.446L1599.87 117.446L1600.44 117.446L1601.01 117.446L1601.57 117.446L1602.14 117.446L1602.71 117.446L1603.28 117.446L1603.85 117.446L1604.42 117.446L1604.99 117.446L1605.56 117.446L1606.13 117.446L1606.7 117.446L1607.27 117.446L1607.85 117.446L1608.42 117.446L1608.99 117.446L1609.57 117.446L1610.14 117.446L1610.71 117.446L1611.29 117.446L1611.86 117.446L1612.44 117.446L1613.02 117.446L1613.59 117.446L1614.17 117.446L1614.75 117.446L1615.32 117.446L1615.9 117.446L1616.48 117.446L1617.06 117.446L1617.63 117.446L1618.21 117.446L1618.79 117.446L1619.37 117.446L1619.95 117.446L1620.53 117.446L1621.1 117.446L1621.68 117.446L1622.26 117.446L1622.84 117.446L1623.42 117.446L1624 117.446L1624.58 117.446L1625.16 117.446L1625.74 117.446L1626.32 117.446L1626.9 117.446L1627.47 117.446L1628.05 117.446L1628.63 117.446L1629.21 117.446L1629.79 117.446L1630.37 117.446L1630.95 117.446L1631.52 117.446L1632.1 117.446L1632.68 117.446L1633.26 117.446L1633.84 117.446L1634.41 117.446L1634.99 117.446L1635.57 117.446L1636.14 117.446L1636.72 117.446L1637.29 117.446L1637.87 117.446L1638.44 117.446L1639.02 117.446L1639.59 117.446L1640.17 117.446L1640.74 117.446L1641.31 117.446L1641.89 117.446L1642.46 117.446L1643.03 117.446L1643.6 117.446L1644.17 117.446L1644.74 117.446L1645.31 117.446L1645.88 117.446L1646.45 117.446L1647.02 117.446L1647.59 117.446L1648.15 117.446L1648.72 117.446L1649.29 117.446L1649.85 117.446L1650.42 117.446L1650.98 117.446L1651.54 117.446L1652.11 117.446L1652.67 117.446L1653.23 117.446L1653.79 117.446L1654.35 117.446L1654.91 117.446L1655.47 117.446L1656.02 117.446L1656.58 117.446L1657.13 117.446L1657.69 117.446L1658.24 117.446L1658.8 117.446L1659.35 117.446L1659.9 117.446L1660.45 117.446L1661 117.446L1661.55 117.446L1662.09 117.446L1662.64 117.446L1663.19 117.446L1663.73 117.446L1664.27 117.446L1664.82 117.446L1665.36 117.446L1665.9 117.446L1666.44 117.446L1666.97 117.446L1667.51 117.446L1668.05 117.446L1668.58 117.446L1669.11 117.446L1669.65 117.446L1670.18 117.446L1670.71 117.446L1671.24 117.446L1671.76 117.446L1672.29 117.446L1672.81 117.446L1673.34 117.446L1673.86 117.446L1674.38 117.446L1674.9 117.446L1675.42 117.446L1675.94 117.446L1676.45 117.446L1676.97 117.446L1677.48 117.446L1677.99 117.446L1678.5 117.446L1679.01 117.446L1679.52 117.446L1680.02 117.446L1680.53 117.446L1681.03 117.446L1681.53 117.446L1682.03 117.446L1682.53 117.446L1683.02 117.446L1683.52 117.446L1684.01 117.446L1684.5 117.446L1685 117.446L1685.48 117.446L1685.97 117.446L1686.46 117.446L1686.94 117.446L1687.42 117.446L1687.9 117.446L1688.38 117.446L1688.86 117.446L1689.33 117.446L1689.8 117.446L1690.28 117.446L1690.75 117.446L1691.21 117.446L1691.68 117.446L1692.14 117.446L1692.6 117.446L1693.07 117.446L1693.52 117.446L1693.98 117.446L1694.43 117.446L1694.89 117.446L1695.34 117.446L1695.79 117.446L1696.23 117.446L1696.68 117.446L1697.12 117.446L1697.56 117.446L1698 117.446L1698.44 117.446L1698.87 117.446L1699.3 117.446L1699.74 117.446L1700.16 117.446L1700.59 117.446L1701.01 117.446L1701.44 117.446L1701.86 117.446L1702.27 117.446L1702.69 117.446L1703.1 117.446L1703.51 117.446L1703.92 117.446L1704.33 117.446L1704.73 117.446L1705.13 117.446L1705.53 117.446L1705.93 117.446L1706.33 117.446L1706.72 117.446L1707.11 117.446L1707.5 117.446L1707.88 117.446L1708.26 117.446L1708.64 117.446L1709.02 117.446L1709.4 117.446L1709.77 117.446L1710.14 117.446L1710.51 117.446L1710.88 117.446L1711.24 117.446L1711.6 117.446L1711.96 117.446L1712.31 117.446L1712.67 117.446L1713.02 117.446L1713.37 117.446L1713.71 117.446L1714.05 117.446L1714.39 117.446L1714.73 117.446L1715.06 117.446L1715.4 117.446L1715.72 117.446L1716.05 117.446L1716.37 117.446L1716.7 117.446L1717.01 117.446L1717.33 117.446L1717.64 117.446L1717.95 117.446L1718.26 117.446L1718.56 117.446L1718.86 117.446L1719.16 117.446L1719.45 117.446L1719.75 117.446L1720.04 117.446L1720.32 117.446L1720.61 117.446L1720.89 117.446L1721.16 117.446L1721.44 117.446L1721.71 117.446L1721.98 117.446L1722.24 117.446L1722.51 117.446L1722.77 117.446L1723.02 117.446L1723.27 117.446L1723.52 117.446L1723.77 117.446L1724.01 117.446L1724.26 117.446L1724.49 117.446L1724.73 117.446L1724.96 117.446L1725.19 117.446L1725.41 117.446L1725.63 117.446L1725.85 117.446L1726.06 117.446L1726.27 117.446L1726.48 117.446L1726.69 117.446L1726.89 117.446L1727.09 117.446L1727.28 117.446L1727.47 117.446L1727.66 117.446L1727.84 117.446L1728.02 117.446L1728.2 117.446L1728.38 117.446L1728.55 117.446L1728.71 117.446L1728.88 117.446L1729.04 117.446L1729.19 117.446L1729.35 117.446L1729.5 117.446L1729.64 117.446L1729.78 117.446L1729.78 108.446L1729.64 108.446L1729.5 108.446L1729.35 108.446L1729.19 108.446L1729.04 108.446L1728.88 108.446L1728.71 108.446L1728.55 108.446L1728.38 108.446L1728.2 108.446L1728.02 108.446L1727.84 108.446L1727.66 108.446L1727.47 108.446L1727.28 108.446L1727.09 108.446L1726.89 108.446L1726.69 108.446L1726.48 108.446L1726.27 108.446L1726.06 108.446L1725.85 108.446L1725.63 108.446L1725.41 108.446L1725.19 108.446L1724.96 108.446L1724.73 108.446L1724.49 108.446L1724.26 108.446L1724.01 108.446L1723.77 108.446L1723.52 108.446L1723.27 108.446L1723.02 108.446L1722.77 108.446L1722.51 108.446L1722.24 108.446L1721.98 108.446L1721.71 108.446L1721.44 108.446L1721.16 108.446L1720.89 108.446L1720.61 108.446L1720.32 108.446L1720.04 108.446L1719.75 108.446L1719.45 108.446L1719.16 108.446L1718.86 108.446L1718.56 108.446L1718.26 108.446L1717.95 108.446L1717.64 108.446L1717.33 108.446L1717.01 108.446L1716.7 108.446L1716.37 108.446L1716.05 108.446L1715.72 108.446L1715.4 108.446L1715.06 108.446L1714.73 108.446L1714.39 108.446L1714.05 108.446L1713.71 108.446L1713.37 108.446L1713.02 108.446L1712.67 108.446L1712.31 108.446L1711.96 108.446L1711.6 108.446L1711.24 108.446L1710.88 108.446L1710.51 108.446L1710.14 108.446L1709.77 108.446L1709.4 108.446L1709.02 108.446L1708.64 108.446L1708.26 108.446L1707.88 108.446L1707.5 108.446L1707.11 108.446L1706.72 108.446L1706.33 108.446L1705.93 108.446L1705.53 108.446L1705.13 108.446L1704.73 108.446L1704.33 108.446L1703.92 108.446L1703.51 108.446L1703.1 108.446L1702.69 108.446L1702.27 108.446L1701.86 108.446L1701.44 108.446L1701.01 108.446L1700.59 108.446L1700.16 108.446L1699.74 108.446L1699.3 108.446L1698.87 108.446L1698.44 108.446L1698 108.446L1697.56 108.446L1697.12 108.446L1696.68 108.446L1696.23 108.446L1695.79 108.446L1695.34 108.446L1694.89 108.446L1694.43 108.446L1693.98 108.446L1693.52 108.446L1693.07 108.446L1692.6 108.446L1692.14 108.446L1691.68 108.446L1691.21 108.446L1690.75 108.446L1690.28 108.446L1689.8 108.446L1689.33 108.446L1688.86 108.446L1688.38 108.446L1687.9 108.446L1687.42 108.446L1686.94 108.446L1686.46 108.446L1685.97 108.446L1685.48 108.446L1685 108.446L1684.5 108.446L1684.01 108.446L1683.52 108.446L1683.02 108.446L1682.53 108.446L1682.03 108.446L1681.53 108.446L1681.03 108.446L1680.53 108.446L1680.02 108.446L1679.52 108.446L1679.01 108.446L1678.5 108.446L1677.99 108.446L1677.48 108.446L1676.97 108.446L1676.45 108.446L1675.94 108.446L1675.42 108.446L1674.9 108.446L1674.38 108.446L1673.86 108.446L1673.34 108.446L1672.81 108.446L1672.29 108.446L1671.76 108.446L1671.24 108.446L1670.71 108.446L1670.18 108.446L1669.65 108.446L1669.11 108.446L1668.58 108.446L1668.05 108.446L1667.51 108.446L1666.97 108.446L1666.44 108.446L1665.9 108.446L1665.36 108.446L1664.82 108.446L1664.27 108.446L1663.73 108.446L1663.19 108.446L1662.64 108.446L1662.09 108.446L1661.55 108.446L1661 108.446L1660.45 108.446L1659.9 108.446L1659.35 108.446L1658.8 108.446L1658.24 108.446L1657.69 108.446L1657.13 108.446L1656.58 108.446L1656.02 108.446L1655.47 108.446L1654.91 108.446L1654.35 108.446L1653.79 108.446L1653.23 108.446L1652.67 108.446L1652.11 108.446L1651.54 108.446L1650.98 108.446L1650.42 108.446L1649.85 108.446L1649.29 108.446L1648.72 108.446L1648.15 108.446L1647.59 108.446L1647.02 108.446L1646.45 108.446L1645.88 108.446L1645.31 108.446L1644.74 108.446L1644.17 108.446L1643.6 108.446L1643.03 108.446L1642.46 108.446L1641.89 108.446L1641.31 108.446L1640.74 108.446L1640.17 108.446L1639.59 108.446L1639.02 108.446L1638.44 108.446L1637.87 108.446L1637.29 108.446L1636.72 108.446L1636.14 108.446L1635.57 108.446L1634.99 108.446L1634.41 108.446L1633.84 108.446L1633.26 108.446L1632.68 108.446L1632.1 108.446L1631.52 108.446L1630.95 108.446L1630.37 108.446L1629.79 108.446L1629.21 108.446L1628.63 108.446L1628.05 108.446L1627.47 108.446L1626.9 108.446L1626.32 108.446L1625.74 108.446L1625.16 108.446L1624.58 108.446L1624 108.446L1623.42 108.446L1622.84 108.446L1622.26 108.446L1621.68 108.446L1621.1 108.446L1620.53 108.446L1619.95 108.446L1619.37 108.446L1618.79 108.446L1618.21 108.446L1617.63 108.446L1617.06 108.446L1616.48 108.446L1615.9 108.446L1615.32 108.446L1614.75 108.446L1614.17 108.446L1613.59 108.446L1613.02 108.446L1612.44 108.446L1611.86 108.446L1611.29 108.446L1610.71 108.446L1610.14 108.446L1609.57 108.446L1608.99 108.446L1608.42 108.446L1607.85 108.446L1607.27 108.446L1606.7 108.446L1606.13 108.446L1605.56 108.446L1604.99 108.446L1604.42 108.446L1603.85 108.446L1603.28 108.446L1602.71 108.446L1602.14 108.446L1601.57 108.446L1601.01 108.446L1600.44 108.446L1599.87 108.446L1599.31 108.446L1598.75 108.446L1598.18 108.446L1597.62 108.446L1597.06 108.446L1596.5 108.446L1595.93 108.446L1595.37 108.446L1594.81 108.446L1594.26 108.446L1593.7 108.446L1593.14 108.446L1592.59 108.446L1592.03 108.446L1591.48 108.446L1590.92 108.446L1590.37 108.446L1589.82 108.446L1589.27 108.446L1588.72 108.446L1588.17 108.446L1587.62 108.446L1587.07 108.446L1586.53 108.446L1585.98 108.446L1585.44 108.446L1584.89 108.446L1584.35 108.446L1583.81 108.446L1583.27 108.446L1582.73 108.446L1582.19 108.446L1581.66 108.446L1581.12 108.446L1580.59 108.446L1580.06 108.446L1579.52 108.446L1578.99 108.446L1578.46 108.446L1577.93 108.446L1577.41 108.446L1576.88 108.446L1576.36 108.446L1575.83 108.446L1575.31 108.446L1574.79 108.446L1574.27 108.446L1573.75 108.446L1573.24 108.446L1572.72 108.446L1572.21 108.446L1571.69 108.446L1571.18 108.446L1570.67 108.446L1570.17 108.446L1569.66 108.446L1569.15 108.446L1568.65 108.446L1568.15 108.446L1567.65 108.446L1567.15 108.446L1566.65 108.446L1566.15 108.446L1565.66 108.446L1565.17 108.446L1564.67 108.446L1564.18 108.446L1563.7 108.446L1563.21 108.446L1562.73 108.446L1562.24 108.446L1561.76 108.446L1561.28 108.446L1560.8 108.446L1560.33 108.446L1559.85 108.446L1559.38 108.446L1558.91 108.446L1558.44 108.446L1557.97 108.446L1557.51 108.446L1557.04 108.446L1556.58 108.446L1556.12 108.446L1555.66 108.446L1555.21 108.446L1554.75 108.446L1554.3 108.446L1553.85 108.446L1553.4 108.446L1552.96 108.446L1552.51 108.446L1552.07 108.446L1551.63 108.446L1551.19 108.446L1550.75 108.446L1550.32 108.446L1549.89 108.446L1549.46 108.446L1549.03 108.446L1548.6 108.446L1548.18 108.446L1547.76 108.446L1547.34 108.446L1546.92 108.446L1546.51 108.446L1546.1 108.446L1545.69 108.446L1545.28 108.446L1544.87 108.446L1544.47 108.446L1544.07 108.446L1543.67 108.446L1543.27 108.446L1542.88 108.446L1542.48 108.446L1542.09 108.446L1541.71 108.446L1541.32 108.446L1540.94 108.446L1540.56 108.446L1540.18 108.446L1539.81 108.446L1539.44 108.446L1539.06 108.446L1538.7 108.446L1538.33 108.446L1537.97 108.446L1537.61 108.446L1537.25 108.446L1536.9 108.446L1536.54 108.446L1536.2 108.446L1535.85 108.446L1535.5 108.446L1535.16 108.446L1534.82 108.446L1534.49 108.446L1534.15 108.446L1533.82 108.446L1533.49 108.446L1533.17 108.446L1532.84 108.446L1532.52 108.446L1532.21 108.446L1531.89 108.446L1531.58 108.446L1531.27 108.446L1530.97 108.446L1530.66 108.446L1530.36 108.446L1530.06 108.446L1529.77 108.446L1529.48 108.446L1529.19 108.446L1528.9 108.446L1528.62 108.446L1528.34 108.446L1528.07 108.446L1527.79 108.446L1527.52 108.446L1527.25 108.446L1526.99 108.446L1526.73 108.446L1526.47 108.446L1526.21 108.446L1525.96 108.446L1525.71 108.446L1525.47 108.446L1525.22 108.446L1524.98 108.446L1524.75 108.446L1524.51 108.446L1524.28 108.446L1524.06 108.446L1523.83 108.446L1523.61 108.446L1523.39 108.446L1523.18 108.446L1522.97 108.446L1522.76 108.446L1522.56 108.446L1522.36 108.446L1522.16 108.446L1521.97 108.446L1521.78 108.446L1521.59 108.446L1521.41 108.446L1521.23 108.446L1521.05 108.446L1520.88 108.446L1520.71 108.446L1520.54 108.446L1520.38 108.446L1520.22 108.446L1520.06 108.446L1519.91 108.446L1519.76 108.446L1519.62 108.446L1519.48 108.446L1519.34 108.446L1519.21 108.446L1519.08 108.446L1518.95 108.446L1518.83 108.446L1518.71 108.446L1518.59 108.446L1518.48 108.446L1518.37 108.446L1518.27 108.446L1518.17 108.446L1518.07 108.446L1517.98 108.446L1517.89 108.446L1517.8 108.446L1517.72 108.446L1517.64 108.446L1517.57 108.446L1517.5 108.446L1517.43 108.446L1517.37 108.446L1517.31 108.446L1517.26 108.446L1517.21 108.446L1517.16 108.446L1517.12 108.446C1514.18 108.446 1512.61 107.816 1511.78 107.075C1511.05 106.423 1510.12 104.992 1510.12 101.45L1510.12 -25L1501.12 -25Z" fill="#858587"/>
<g id="Base" opacity="0.1">
<path id="Vector" d="M378.664 115.209C378.664 113.989 379.653 113 380.874 113H415.119C416.339 113 417.329 113.989 417.329 115.209V149.455C417.329 150.675 416.339 151.664 415.119 151.664H380.874C379.653 151.664 378.664 150.675 378.664 149.455V115.209Z" fill="#858587"/>
<g id="Rectangle 603">
<mask id="path-6-inside-1_61_1017" fill="white">
<rect x="342" y="61" width="254.079" height="143.61" rx="5.52346"/>
</mask>
<rect x="342" y="61" width="254.079" height="143.61" rx="5.52346" stroke="#858587" stroke-width="18" mask="url(#path-6-inside-1_61_1017)"/>
</g>
</g>
</g>
<svg x="1685" y="544" width="190" height="190" viewBox="0 0 190 190" fill="none" xmlns="http://www.w3.org/2000/svg">
<g id="Network" opacity="0.1">
<path id="Vector" d="M96.5139 178.178L92.0781 187.242C59.8962 170.799 39.0776 134.165 39.0776 93.3582C39.0776 53.4692 58.7824 18.6091 89.9976 1.83594L94.8958 9.3959C66.9762 24.6487 49.1548 57.446 49.1548 93.3582C49.1548 130.165 67.6343 163.339 96.5139 178.178Z" fill="#858587" stroke="#2A2A2A" stroke-width="2.8"/>
<path id="Vector_2" d="M148.939 93.3617V93.3622C148.952 133.094 126.8 170.469 96.3915 187.422L93.761 177.627C121.282 162.488 138.862 129.51 138.862 93.3617C138.862 57.8695 119.49 23.168 92.7437 7.65649L98.2908 1.75201C128.427 18.6691 148.939 53.848 148.939 93.3617Z" fill="#858587" stroke="#2A2A2A" stroke-width="2.8"/>
<line id="Line 36" x1="13.5714" y1="55.8096" x2="176.429" y2="55.8096" stroke="#858587" stroke-width="6"/>
<line id="Line 38" x1="13.5714" y1="134.222" x2="176.429" y2="134.222" stroke="#858587" stroke-width="6"/>
<line id="Line 37" x1="5" y1="95" x2="185" y2="95" stroke="#858587" stroke-width="6"/>
<line id="Line 39" x1="94" y1="2" x2="94" y2="185" stroke="#858587" stroke-width="6"/>
<circle id="Ellipse 62" cx="95" cy="95" r="92" stroke="#858587" stroke-width="6"/>
</g>
</svg>
</svg>
