<svg width="116" height="116" viewBox="0 0 116 116" fill="none" xmlns="http://www.w3.org/2000/svg">
<g clip-path="url(#clip0_24_915)">
<path d="M86.0855 102.056V102.515H86.5453H88.8946C89.3973 102.515 89.8785 102.713 90.2325 103.063C90.5863 103.413 90.7841 103.887 90.7841 104.38V109.026C90.7769 110.75 90.0815 112.402 88.8477 113.623C87.614 114.843 85.9418 115.533 84.195 115.54C84.1947 115.54 84.1944 115.54 84.1941 115.54H32.5132C32.5129 115.54 32.5126 115.54 32.5123 115.54C30.7655 115.533 29.0933 114.843 27.8596 113.623C26.626 112.402 25.9306 110.75 25.9232 109.027V104.38C25.9232 103.887 26.121 103.413 26.4748 103.063C26.8288 102.713 27.31 102.515 27.8127 102.515H30.162H30.6218V102.056V74.1682C30.6292 72.4447 31.3246 70.7928 32.5582 69.5725C33.7919 68.352 35.4641 67.6622 37.2109 67.6548H79.4964C81.2432 67.6622 82.9154 68.352 84.1491 69.5725C85.3827 70.7928 86.0781 72.4447 86.0855 74.1682C86.0855 74.1685 86.0855 74.1688 86.0855 74.1691L86.0855 102.056ZM81.8467 102.515H82.3064V102.056V74.1672C82.3064 73.4273 82.0093 72.7187 81.4819 72.197C80.9548 71.6755 80.2408 71.3834 79.4974 71.3834H37.2099C36.4665 71.3834 35.7526 71.6755 35.2254 72.197C34.698 72.7187 34.4009 73.4273 34.4009 74.1672V102.056V102.515H34.8606H81.8467ZM30.162 106.244H29.7023V106.704V109.028C29.7023 109.768 29.9994 110.476 30.5268 110.998L30.8501 110.671L30.5268 110.998C31.0539 111.52 31.7679 111.812 32.5113 111.812H84.196C84.9394 111.812 85.6534 111.52 86.1805 110.998C86.7079 110.476 87.005 109.768 87.005 109.028V106.704V106.244H86.5453H30.162ZM64.9418 78.8153C64.9418 79.3081 64.744 79.7818 64.3901 80.1318C64.0361 80.482 63.555 80.6796 63.0523 80.6796H53.655C53.1523 80.6796 52.6712 80.482 52.3172 80.1318C51.9634 79.7818 51.7655 79.3081 51.7655 78.8153C51.7655 78.3225 51.9634 77.8488 52.3172 77.4988C52.6712 77.1486 53.1523 76.951 53.655 76.951H63.0523C63.555 76.951 64.0361 77.1486 64.3901 77.4988C64.744 77.8488 64.9418 78.3225 64.9418 78.8153Z" fill="white" stroke="#393939" stroke-width="0.919512"/>
<path d="M70.458 83.7864C70.4314 83.6682 70.3793 83.557 70.3052 83.4604C70.2312 83.3637 70.1369 83.2839 70.0288 83.2262L67.4748 81.8312C67.3378 81.5578 67.1837 81.2931 67.0133 81.0386L67.067 78.164C67.0679 78.0434 67.0437 77.9239 66.9957 77.813C66.9477 77.7021 66.877 77.6021 66.788 77.5193C65.5163 76.3838 64.0123 75.5297 62.3774 75.0146C62.26 74.9785 62.1362 74.9674 62.0141 74.982C61.892 74.9966 61.7744 75.0365 61.6691 75.0991L59.1688 76.5787C58.8576 76.5681 58.5571 76.5681 58.2459 76.5787L55.7455 75.0991C55.6402 75.0365 55.5227 74.9966 55.4006 74.982C55.2785 74.9674 55.1546 74.9785 55.0372 75.0146C53.4001 75.5301 51.8956 76.3881 50.6267 77.5299C50.5369 77.6098 50.4656 77.7078 50.4174 77.8171C50.3693 77.9265 50.3455 78.0448 50.3477 78.164L50.4013 81.0386C50.2296 81.2922 50.0794 81.5564 49.9292 81.8312L47.3751 83.2262C47.2686 83.2845 47.176 83.3647 47.1038 83.4613C47.0316 83.558 46.9814 83.6689 46.9566 83.7864C46.5917 85.4368 46.5917 87.1453 46.9566 88.7958C46.9833 88.914 47.0354 89.0252 47.1094 89.1218C47.1835 89.2184 47.2778 89.2983 47.3859 89.3559L49.9399 90.751C50.0768 91.0244 50.2309 91.2891 50.4013 91.5436L50.3477 94.4182C50.3467 94.5388 50.371 94.6582 50.419 94.7692C50.467 94.8801 50.5377 94.9801 50.6267 95.0629C51.8984 96.1984 53.4023 97.0524 55.0372 97.5676C55.1546 97.6036 55.2785 97.6147 55.4006 97.6002C55.5227 97.5856 55.6402 97.5457 55.7455 97.483L58.2459 96.0035H59.1688L61.6799 97.483C61.8104 97.5676 61.9636 97.6117 62.1199 97.6099C62.2071 97.6061 62.2936 97.5919 62.3774 97.5676C64.0145 97.052 65.5191 96.194 66.788 95.0523C66.8777 94.9723 66.9491 94.8744 66.9972 94.765C67.0453 94.6556 67.0691 94.5374 67.067 94.4182L67.0133 91.5436C67.185 91.2899 67.3352 91.0257 67.4855 90.751L70.0395 89.3559C70.1461 89.2977 70.2386 89.2175 70.3108 89.1208C70.383 89.0242 70.4333 88.9133 70.458 88.7958C70.8229 87.1453 70.8229 85.4368 70.458 83.7864ZM58.7073 90.9412C57.7734 90.9412 56.8605 90.6685 56.0841 90.1575C55.3076 89.6465 54.7024 88.9203 54.345 88.0706C53.9876 87.2209 53.8941 86.2859 54.0763 85.3839C54.2585 84.4819 54.7082 83.6533 55.3685 83.003C56.0289 82.3526 56.8702 81.9098 57.7862 81.7303C58.7021 81.5509 59.6515 81.643 60.5143 81.9949C61.377 82.3469 62.1145 82.9429 62.6333 83.7076C63.1521 84.4723 63.4291 85.3714 63.4291 86.2911C63.4291 87.5244 62.9316 88.7071 62.0461 89.5792C61.1606 90.4513 59.9596 90.9412 58.7073 90.9412Z" fill="#FF9C00"/>
<path d="M4.95122 6.64883C4.95122 6.49258 5.07789 6.36591 5.23414 6.36591H9.61951C9.77577 6.36591 9.90244 6.49258 9.90244 6.64883V11.0342C9.90244 11.1905 9.77577 11.3171 9.61951 11.3171H5.23414C5.07789 11.3171 4.95122 11.1905 4.95122 11.0342V6.64883Z" fill="white"/>
<mask id="path-4-inside-1_24_915" fill="white">
<rect width="32.5366" height="18.3902" rx="0.707317"/>
</mask>
<rect width="32.5366" height="18.3902" rx="0.707317" stroke="white" stroke-width="5.65854" mask="url(#path-4-inside-1_24_915)"/>
<path d="M46.6829 6.64883C46.6829 6.49258 46.8096 6.36591 46.9659 6.36591H51.3512C51.5075 6.36591 51.6341 6.49258 51.6341 6.64883V11.0342C51.6341 11.1905 51.5075 11.3171 51.3512 11.3171H46.9659C46.8096 11.3171 46.6829 11.1905 46.6829 11.0342V6.64883Z" fill="white"/>
<mask id="path-6-inside-2_24_915" fill="white">
<rect x="41.7317" width="32.5366" height="18.3902" rx="0.707317"/>
</mask>
<rect x="41.7317" width="32.5366" height="18.3902" rx="0.707317" stroke="white" stroke-width="5.65854" mask="url(#path-6-inside-2_24_915)"/>
<path d="M88.4146 6.64883C88.4146 6.49258 88.5413 6.36591 88.6976 6.36591H93.0829C93.2392 6.36591 93.3659 6.49258 93.3659 6.64883V11.0342C93.3659 11.1905 93.2392 11.3171 93.0829 11.3171H88.6976C88.5413 11.3171 88.4146 11.1905 88.4146 11.0342V6.64883Z" fill="white"/>
<mask id="path-8-inside-3_24_915" fill="white">
<rect x="83.4634" width="32.5366" height="18.3902" rx="0.707317"/>
</mask>
<rect x="83.4634" width="32.5366" height="18.3902" rx="0.707317" stroke="white" stroke-width="5.65854" mask="url(#path-8-inside-3_24_915)"/>
<path d="M4.95122 26.039C4.95122 25.8827 5.07789 25.756 5.23414 25.756H9.61951C9.77577 25.756 9.90244 25.8827 9.90244 26.039V30.4243C9.90244 30.5806 9.77577 30.7073 9.61951 30.7073H5.23414C5.07789 30.7073 4.95122 30.5806 4.95122 30.4243V26.039Z" fill="white"/>
<mask id="path-10-inside-4_24_915" fill="white">
<rect y="19.3901" width="32.5366" height="18.3902" rx="0.707317"/>
</mask>
<rect y="19.3901" width="32.5366" height="18.3902" rx="0.707317" stroke="white" stroke-width="5.65854" mask="url(#path-10-inside-4_24_915)"/>
<path d="M46.6829 26.039C46.6829 25.8827 46.8096 25.756 46.9658 25.756H51.3512C51.5075 25.756 51.6341 25.8827 51.6341 26.039V30.4243C51.6341 30.5806 51.5075 30.7073 51.3512 30.7073H46.9658C46.8096 30.7073 46.6829 30.5806 46.6829 30.4243V26.039Z" fill="white"/>
<mask id="path-12-inside-5_24_915" fill="white">
<rect x="41.7317" y="19.3901" width="32.5366" height="18.3902" rx="0.707317"/>
</mask>
<rect x="41.7317" y="19.3901" width="32.5366" height="18.3902" rx="0.707317" stroke="white" stroke-width="5.65854" mask="url(#path-12-inside-5_24_915)"/>
<path d="M88.4146 26.039C88.4146 25.8827 88.5413 25.756 88.6976 25.756H93.0829C93.2392 25.756 93.3659 25.8827 93.3659 26.039V30.4243C93.3659 30.5806 93.2392 30.7073 93.0829 30.7073H88.6976C88.5413 30.7073 88.4146 30.5806 88.4146 30.4243V26.039Z" fill="white"/>
<mask id="path-14-inside-6_24_915" fill="white">
<rect x="83.4634" y="19.3901" width="32.5366" height="18.3902" rx="0.707317"/>
</mask>
<rect x="83.4634" y="19.3901" width="32.5366" height="18.3902" rx="0.707317" stroke="white" stroke-width="5.65854" mask="url(#path-14-inside-6_24_915)"/>
<path d="M4.95122 45.4295C4.95122 45.2733 5.07789 45.1466 5.23414 45.1466H9.61951C9.77577 45.1466 9.90244 45.2733 9.90244 45.4295V49.8149C9.90244 49.9712 9.77577 50.0978 9.61951 50.0978H5.23414C5.07789 50.0978 4.95122 49.9712 4.95122 49.8149V45.4295Z" fill="white"/>
<mask id="path-16-inside-7_24_915" fill="white">
<rect y="38.7808" width="32.5366" height="18.3902" rx="0.707317"/>
</mask>
<rect y="38.7808" width="32.5366" height="18.3902" rx="0.707317" stroke="white" stroke-width="5.65854" mask="url(#path-16-inside-7_24_915)"/>
<path d="M46.6829 45.4295C46.6829 45.2733 46.8096 45.1466 46.9658 45.1466H51.3512C51.5075 45.1466 51.6341 45.2733 51.6341 45.4295V49.8149C51.6341 49.9712 51.5075 50.0978 51.3512 50.0978H46.9658C46.8096 50.0978 46.6829 49.9712 46.6829 49.8149V45.4295Z" fill="white"/>
<mask id="path-18-inside-8_24_915" fill="white">
<rect x="41.7317" y="38.7808" width="32.5366" height="18.3902" rx="0.707317"/>
</mask>
<rect x="41.7317" y="38.7808" width="32.5366" height="18.3902" rx="0.707317" stroke="white" stroke-width="5.65854" mask="url(#path-18-inside-8_24_915)"/>
<path d="M88.4146 45.4295C88.4146 45.2733 88.5413 45.1466 88.6976 45.1466H93.0829C93.2392 45.1466 93.3659 45.2733 93.3659 45.4295V49.8149C93.3659 49.9712 93.2392 50.0978 93.0829 50.0978H88.6976C88.5413 50.0978 88.4146 49.9712 88.4146 49.8149V45.4295Z" fill="white"/>
<mask id="path-20-inside-9_24_915" fill="white">
<rect x="83.4634" y="38.7808" width="32.5366" height="18.3902" rx="0.707317"/>
</mask>
<rect x="83.4634" y="38.7808" width="32.5366" height="18.3902" rx="0.707317" stroke="white" stroke-width="5.65854" mask="url(#path-20-inside-9_24_915)"/>
<line x1="58.5" y1="55" x2="58.5" y2="70" stroke="white" stroke-width="3"/>
<path d="M16 55V83C16 84.5 16.8 85 18 85C19.2 85 27.8333 85 32 85" stroke="white" stroke-width="3"/>
<path d="M101 55V83C101 84.5 100.2 85 99 85C97.8 85 89.1667 85 85 85" stroke="white" stroke-width="3"/>
</g>
<defs>
<clipPath id="clip0_24_915">
<rect width="116" height="116" fill="white"/>
</clipPath>
</defs>
</svg>
