<svg width="20" height="20" viewBox="0 0 20 20" fill="none" xmlns="http://www.w3.org/2000/svg">
<path d="M9 0C8.46957 0 7.96086 0.210714 7.58579 0.585786C7.21071 0.960859 7 1.46957 7 2V2.757L6.293 3.464L7 2.757L6.464 2.222C6.08894 1.84706 5.58033 1.63643 5.05 1.63643C4.51967 1.63643 4.01106 1.84706 3.636 2.222L2.222 3.636C1.84706 4.01106 1.63643 4.51967 1.63643 5.05C1.63643 5.58033 1.84706 6.08894 2.222 6.464L2.757 7H2C1.46957 7 0.960859 7.21071 0.585786 7.58579C0.210714 7.96086 0 8.46957 0 9V11C0 11.5304 0.210714 12.0391 0.585786 12.4142C0.960859 12.7893 1.46957 13 2 13H2.757L2.222 13.536C1.84706 13.9111 1.63643 14.4197 1.63643 14.95C1.63643 15.4803 1.84706 15.9889 2.222 16.364L3.636 17.778C4.01106 18.1529 4.51967 18.3636 5.05 18.3636C5.58033 18.3636 6.08894 18.1529 6.464 17.778L7 17.243V18C7 18.5304 7.21071 19.0391 7.58579 19.4142C7.96086 19.7893 8.46957 20 9 20H11C11.5304 20 12.0391 19.7893 12.4142 19.4142C12.7893 19.0391 13 18.5304 13 18V17.243L13.536 17.778C13.9111 18.1529 14.4197 18.3636 14.95 18.3636C15.4803 18.3636 15.9889 18.1529 16.364 17.778L17.778 16.364C17.9638 16.1783 18.1112 15.9578 18.2118 15.7151C18.3123 15.4723 18.3641 15.2122 18.3641 14.9495C18.3641 14.6868 18.3123 14.4267 18.2118 14.1839C18.1112 13.9412 17.9638 13.7207 17.778 13.535L17.243 13H18C18.5304 13 19.0391 12.7893 19.4142 12.4142C19.7893 12.0391 20 11.5304 20 11V9C20 8.46957 19.7893 7.96086 19.4142 7.58579C19.0391 7.21071 18.5304 7 18 7H17.243L17.778 6.464C18.1529 6.08894 18.3636 5.58033 18.3636 5.05C18.3636 4.51967 18.1529 4.01106 17.778 3.636L16.364 2.222C15.9889 1.84706 15.4803 1.63643 14.95 1.63643C14.4197 1.63643 13.9111 1.84706 13.536 2.222L13 2.757V2C13 1.46957 12.7893 0.960859 12.4142 0.585786C12.0391 0.210714 11.5304 0 11 0H9ZM9 2H11V2.757C11 4.539 13.154 5.432 14.414 4.172L14.95 3.636L16.364 5.05L15.828 5.586C14.568 6.846 15.461 9 17.243 9H18V11H17.243C15.461 11 14.569 13.154 15.828 14.414L16.364 14.95L14.95 16.364L14.414 15.828C13.154 14.568 11 15.461 11 17.243V18H9V17.243C9 15.461 6.846 14.569 5.586 15.828L5.05 16.364L3.636 14.95L4.172 14.414C5.432 13.154 4.539 11 2.757 11H2V9H2.757C4.539 9 5.432 6.846 4.172 5.586L3.636 5.05L5.05 3.636L5.586 4.172C6.846 5.432 9 4.539 9 2.757V2ZM8 10C8 9.46957 8.21071 8.96086 8.58579 8.58579C8.96086 8.21071 9.46957 8 10 8C10.5304 8 11.0391 8.21071 11.4142 8.58579C11.7893 8.96086 12 9.46957 12 10C12 10.5304 11.7893 11.0391 11.4142 11.4142C11.0391 11.7893 10.5304 12 10 12C9.46957 12 8.96086 11.7893 8.58579 11.4142C8.21071 11.0391 8 10.5304 8 10ZM10 6C8.93913 6 7.92172 6.42143 7.17157 7.17157C6.42143 7.92172 6 8.93913 6 10C6 11.0609 6.42143 12.0783 7.17157 12.8284C7.92172 13.5786 8.93913 14 10 14C11.0609 14 12.0783 13.5786 12.8284 12.8284C13.5786 12.0783 14 11.0609 14 10C14 8.93913 13.5786 7.92172 12.8284 7.17157C12.0783 6.42143 11.0609 6 10 6Z" fill="#FF9C00"/>
</svg>
