<svg width="10" height="10" viewBox="0 0 10 10" fill="none" xmlns="http://www.w3.org/2000/svg">
<path d="M9.79499 7.30937L6.00349 0.776875C5.75749 0.348906 5.38949 0.109375 4.99449 0.109375C4.59949 0.109375 4.23699 0.353594 3.98649 0.781563L0.204488 7.30984C-0.0405122 7.73219 -0.0675122 8.16531 0.135488 8.49578C0.337988 8.82719 0.743488 9.01562 1.24499 9.01562H8.75499C9.25649 9.01562 9.66199 8.82719 9.86499 8.49625C10.0675 8.16531 10.0405 7.73734 9.79499 7.30984V7.30937ZM4.99999 2.15172C5.19749 2.15172 5.35749 2.30453 5.35749 2.49297V5.57875C5.35749 5.76719 5.19749 5.92 4.99999 5.92C4.9526 5.91963 4.90576 5.91051 4.86214 5.89316C4.81852 5.8758 4.77898 5.85055 4.74577 5.81886C4.71257 5.78717 4.68636 5.74965 4.66863 5.70844C4.65091 5.66724 4.64203 5.62317 4.64249 5.57875V2.4925C4.64249 2.30922 4.80249 2.15125 4.99999 2.15125V2.15172ZM4.99999 7.60047C4.69049 7.60047 4.44499 7.36141 4.44499 7.06609C4.44499 6.77078 4.69599 6.53125 4.99999 6.53125C5.30949 6.53125 5.55499 6.77031 5.55499 7.06563C5.55499 7.36094 5.30399 7.60047 4.99999 7.60047Z" fill="white"/>
</svg>
