<svg width="24" height="24" viewBox="0 0 24 24" fill="none" xmlns="http://www.w3.org/2000/svg">
  <path d="M21.2414 11.7183C19.3144 8.1558 15.9348 6 12.1951 6C8.45527 6 5.07003 8.1558 3.16011 11.7183L3 11.9871L3.14868 12.2616C5.07575 15.8241 8.45527 17.9799 12.1951 17.9799C15.9348 17.9799 19.3201 15.8527 21.2414 12.2616L21.3901 11.9871L21.2414 11.7183ZM12.1951 16.8076C8.97564 16.8076 6.01927 15.0121 4.30378 11.9871C6.01927 8.96209 8.97564 7.16654 12.1951 7.16654C15.4145 7.16654 18.3365 8.9678 20.0806 11.9871C18.3365 15.0121 15.4087 16.8076 12.1951 16.8076Z" fill="#D0D0D0"/>
  <path d="M12.3609 8.08165C11.5856 8.08731 10.8293 8.32261 10.1876 8.75783C9.54596 9.19305 9.04764 9.80867 8.75563 10.5269C8.46362 11.2452 8.39102 12.0339 8.54699 12.7934C8.70295 13.5529 9.0805 14.2492 9.63195 14.7942C10.1834 15.3393 10.884 15.7087 11.6453 15.8558C12.4065 16.0029 13.1943 15.9211 13.9091 15.6208C14.624 15.3204 15.2337 14.815 15.6615 14.1683C16.0892 13.5216 16.3157 12.7626 16.3123 11.9873C16.31 11.4711 16.206 10.9605 16.006 10.4847C15.8061 10.0089 15.5142 9.57721 15.1472 9.21439C14.7801 8.85157 14.345 8.56475 13.8669 8.37038C13.3888 8.176 12.877 8.07788 12.3609 8.08165ZM12.3609 14.7835C11.8133 14.7779 11.2795 14.6105 10.8266 14.3025C10.3737 13.9945 10.022 13.5595 9.81551 13.0522C9.60904 12.5449 9.55707 11.9879 9.66613 11.4512C9.77518 10.9145 10.0404 10.4219 10.4285 10.0354C10.8165 9.64894 11.3102 9.38574 11.8473 9.27887C12.3845 9.17201 12.9413 9.22625 13.4477 9.43478C13.9542 9.64332 14.3877 9.99685 14.6939 10.451C15.0001 10.9051 15.1652 11.4396 15.1686 11.9873C15.1702 12.3559 15.0985 12.7211 14.9578 13.0618C14.8171 13.4025 14.6101 13.7119 14.349 13.972C14.0878 14.2321 13.7776 14.4377 13.4363 14.5771C13.0951 14.7164 12.7295 14.7865 12.3609 14.7835Z" fill="#D0D0D0"/>
</svg>
