<svg id="SvgjsSvg1001" width="288" height="288" xmlns="http://www.w3.org/2000/svg" version="1.1" xmlns:xlink="http://www.w3.org/1999/xlink" xmlns:svgjs="http://svgjs.com/svgjs"><defs id="SvgjsDefs1002"></defs><g id="SvgjsG1008"><svg xmlns="http://www.w3.org/2000/svg" width="288" height="288" enable-background="new 0 0 792 792" viewBox="0 0 792 792"><rect width="360" height="36" x="216" y="432" fill="#ff9c00" class="color000 svgShape"></rect><rect width="360" height="36" x="216" y="540" fill="#ff9c00" class="color000 svgShape"></rect><rect width="216" height="36" x="216" y="108" fill="#ff9c00" class="color000 svgShape"></rect><rect width="360" height="36" x="216" y="648" fill="#ff9c00" class="color000 svgShape"></rect><rect width="360" height="36" x="216" y="324" fill="#ff9c00" class="color000 svgShape"></rect><path d="M666.54,792c0,0,17.46,0,17.46-17.604V158.4L526.896,0H125.46c0,0-17.46,0-17.46,17.604V774.36
			C108,792,125.46,792,125.46,792H666.54z M144,36h360v108c0,36,36,36,36,36h108v576H144V36z" fill="#ff9c00" class="color000 svgShape"></path><rect width="360" height="36" x="216" y="216" fill="#ff9c00" class="color000 svgShape"></rect></svg></g></svg>