<svg width="378" height="171" viewBox="0 0 378 171" fill="none" xmlns="http://www.w3.org/2000/svg">
<path d="M119.269 81.9991C126.398 84.6493 131.918 88.5095 135.828 93.5793C139.737 98.6492 141.692 104.756 141.692 111.9C141.692 122.501 137.323 130.74 128.583 136.616C119.844 142.377 107.195 145.258 90.6365 145.258H22.6772V24.271H87.1868C103.285 24.271 115.417 27.1516 123.581 32.9129C131.861 38.6742 136 46.3368 136 55.9005C136 61.5466 134.563 66.6165 131.688 71.1103C128.928 75.6041 124.789 79.2337 119.269 81.9991ZM62.6939 52.7894V70.7646H81.6673C90.5215 70.7646 94.9486 67.7688 94.9486 61.777C94.9486 55.7852 90.5215 52.7894 81.6673 52.7894H62.6939ZM87.1868 116.74C96.156 116.74 100.641 113.571 100.641 107.234C100.641 100.896 96.156 97.7275 87.1868 97.7275H62.6939V116.74H87.1868Z" fill="white"/>
<path d="M303.546 24.271L264.909 145.258H221.27L201.779 80.6164L181.254 145.258H137.615L98.978 24.271H140.892L161.935 93.0608L184.186 24.271H221.615L242.658 93.925L264.909 24.271H303.546Z" fill="#FF9C00"/>
<path d="M306.7 147.055C296.898 147.063 287.321 146.005 277.969 143.882C268.729 141.646 268.82 141.581 266.068 140.661L275.307 109.713C281.665 112.161 279.914 111.915 286.901 113.928C293.887 115.829 300.591 116.777 307.013 116.772C312.533 116.767 316.476 116.259 318.841 115.248C321.206 114.124 322.388 112.497 322.386 110.366C322.384 107.898 320.805 106.049 317.65 104.818C314.607 103.587 309.536 102.245 302.437 100.793C293.31 98.8934 285.704 96.8807 279.619 94.7546C273.533 92.5164 268.235 88.9315 263.725 84.0002C259.214 78.9567 256.956 72.1729 256.949 63.6488C256.943 56.2462 259.021 49.515 263.185 43.455C267.349 37.395 273.541 32.6232 281.762 29.1395C290.096 25.6558 300.178 23.9091 312.008 23.8995C320.119 23.8929 328.062 24.7837 335.837 26.5719C343.725 28.2479 350.656 30.7658 356.629 34.1258L344.654 62.9044C333.046 57.0815 322.059 54.1744 311.694 54.1828C301.442 54.1911 296.318 56.6629 296.322 61.5978C296.324 63.9532 297.846 65.7466 300.889 66.9778C303.932 68.097 308.946 69.3266 315.932 70.6668C324.946 72.3418 332.553 74.2985 338.751 76.5366C344.949 78.6626 350.303 82.1913 354.813 87.1226C359.436 92.0538 361.752 98.7815 361.758 107.306C361.764 114.708 359.686 121.439 355.522 127.499C351.358 133.447 345.11 138.219 336.776 141.815C328.554 145.299 318.529 147.045 306.7 147.055Z" fill="white"/>
</svg>
