<svg width="190" height="190" viewBox="0 0 190 190" fill="none" xmlns="http://www.w3.org/2000/svg">
<g id="Network" opacity="0.1">
<path id="Vector" d="M96.5139 178.178L92.0781 187.242C59.8962 170.799 39.0776 134.165 39.0776 93.3582C39.0776 53.4692 58.7824 18.6091 89.9976 1.83594L94.8958 9.3959C66.9762 24.6487 49.1548 57.446 49.1548 93.3582C49.1548 130.165 67.6343 163.339 96.5139 178.178Z" fill="#858587" stroke="#2A2A2A" stroke-width="2.8"/>
<path id="Vector_2" d="M148.939 93.3617V93.3622C148.952 133.094 126.8 170.469 96.3915 187.422L93.761 177.627C121.282 162.488 138.862 129.51 138.862 93.3617C138.862 57.8695 119.49 23.168 92.7437 7.65649L98.2908 1.75201C128.427 18.6691 148.939 53.848 148.939 93.3617Z" fill="#858587" stroke="#2A2A2A" stroke-width="2.8"/>
<line id="Line 36" x1="13.5714" y1="55.8096" x2="176.429" y2="55.8096" stroke="#858587" stroke-width="6"/>
<line id="Line 38" x1="13.5714" y1="134.222" x2="176.429" y2="134.222" stroke="#858587" stroke-width="6"/>
<line id="Line 37" x1="5" y1="95" x2="185" y2="95" stroke="#858587" stroke-width="6"/>
<line id="Line 39" x1="94" y1="2" x2="94" y2="185" stroke="#858587" stroke-width="6"/>
<circle id="Ellipse 62" cx="95" cy="95" r="92" stroke="#858587" stroke-width="6"/>
</g>
</svg>
