<svg width="52" height="52" viewBox="0 0 52 52" fill="none" xmlns="http://www.w3.org/2000/svg">
<circle cx="26" cy="26" r="26" fill="#EDEDED"/>
<g clip-path="url(#clip0_47_718)">
<path d="M7.97034 28.3793V27.7754C8.23691 28.1852 8.828 28.4979 9.59294 28.4979C11.204 28.4979 12.3514 27.3224 12.3514 25.6724C12.3514 24.0656 11.343 22.8685 9.66248 22.8685C8.87436 22.8685 8.23691 23.1705 7.99352 23.5048V20.5391H6.2666V28.3685H7.97034V28.3793ZM10.5897 25.694C10.5897 26.5891 9.97541 27.0312 9.2916 27.0312C8.60779 27.0312 7.97034 26.5783 7.97034 25.694C7.97034 24.7881 8.5962 24.3675 9.28001 24.3675C9.96382 24.3675 10.5897 24.7773 10.5897 25.694ZM14.5651 28.3793V23.0087H12.8034V28.3793H14.5651ZM17.0106 25.295C17.0106 24.7558 17.3814 24.3567 17.9609 24.3567C18.5984 24.3567 18.8997 24.7558 18.8997 25.2842V28.3793H20.6614V25.0038C20.6614 23.8283 20.0124 22.8577 18.552 22.8577C17.9609 22.8577 17.254 23.1058 16.941 23.6126V22.9979H15.2373V28.3685H17.0106V25.295ZM21.1134 26.9018C21.1134 27.7538 21.8436 28.5303 23.1069 28.5303C23.8719 28.5303 24.4282 28.2283 24.7295 27.7754C24.7295 28.142 24.7759 28.3362 24.7875 28.3793H26.3753C26.3637 28.3254 26.3058 27.9695 26.3058 27.5489V24.9175C26.3058 23.8175 25.622 22.8362 23.7444 22.8362C22.0522 22.8362 21.2757 23.8499 21.2062 24.6156L22.736 24.9067C22.7708 24.5077 23.1069 24.1195 23.7212 24.1195C24.2775 24.1195 24.5673 24.3891 24.5673 24.7018C24.5673 24.8852 24.463 25.0254 24.15 25.0685L22.794 25.2626C21.8668 25.4028 21.1134 25.9528 21.1134 26.9018ZM23.7096 27.344C23.2228 27.344 23.0258 27.0744 23.0258 26.794C23.0258 26.4165 23.304 26.2548 23.6748 26.2009L24.7643 26.0391V26.2763C24.7643 27.1067 24.2312 27.344 23.7096 27.344ZM30.6057 23.0087C30.4898 22.9763 30.3159 22.9548 30.1421 22.9548C29.6785 22.9548 28.9483 23.1273 28.647 23.7312V23.0087H26.9316V28.3793H28.6933V26.0391C28.6933 24.9714 29.3308 24.5832 30.0378 24.5832C30.2116 24.5832 30.3971 24.594 30.5941 24.6371L30.6057 23.0087ZM33.8625 30.4499L37.4206 23.0087H35.5546L34.2797 25.8881L32.8657 23.0087H30.8954L33.3293 27.6567L32.0081 30.4499H33.8625Z" fill="#282828"/>
<path d="M14.5649 22.6743V21.0243H12.7916V22.6743H14.5649Z" fill="#FF9C00"/>
<path d="M40.2717 23.5478C40.2138 23.2998 39.9935 22.9762 39.4372 22.9762C38.9852 22.9762 38.6259 23.2998 38.6259 23.6556C38.6259 24.0007 38.8693 24.2056 39.2286 24.2811L39.5763 24.3566C39.8197 24.3998 39.9472 24.5507 39.9472 24.7125C39.9472 24.9066 39.7849 25.0792 39.4372 25.0792C39.0663 25.0792 38.8693 24.8419 38.8461 24.5939L38.5216 24.6909C38.568 25.0145 38.8461 25.3703 39.4372 25.3703C39.9588 25.3703 40.2833 25.0468 40.2833 24.6909C40.2833 24.3674 40.0515 24.1301 39.6458 24.0547L39.275 23.9792C39.0663 23.936 38.962 23.8066 38.962 23.6449C38.962 23.4292 39.1591 23.2674 39.4372 23.2674C39.7849 23.2674 39.924 23.4939 39.9588 23.6556L40.2717 23.5478ZM43.0997 23.3213V23.0301H41.1178V23.3213H41.9407V25.3056H42.2768V23.3213H43.0997ZM44.9425 25.3596C45.4409 25.3596 45.8233 25.0684 45.8233 24.5292V23.0301H45.4872V24.5184C45.4872 24.8635 45.2902 25.0576 44.9425 25.0576C44.5948 25.0576 44.3978 24.8635 44.3978 24.5184V23.0301H44.0616V24.5292C44.0616 25.0684 44.4441 25.3596 44.9425 25.3596ZM38.8693 28.088V26.3625H39.3793C39.8313 26.3625 40.2022 26.6537 40.2022 27.2252C40.2022 27.7968 39.8197 28.0772 39.3677 28.0772L38.8693 28.088ZM39.3793 28.3684C40.0051 28.3684 40.5499 27.9801 40.5499 27.236C40.5499 26.4811 40.0051 26.0929 39.3793 26.0929H38.5216V28.3792L39.3793 28.3684ZM42.2768 28.3684V26.0821H41.9291V28.3684H42.2768ZM44.0153 27.2252C44.0153 26.6321 44.4441 26.3301 44.8961 26.3301C45.3481 26.3301 45.777 26.6321 45.777 27.2252C45.777 27.8184 45.3481 28.1311 44.8961 28.1311C44.4441 28.1311 44.0153 27.8184 44.0153 27.2252ZM43.6676 27.2252C43.6676 27.9909 44.2819 28.4115 44.8961 28.4115C45.5104 28.4115 46.1247 27.9801 46.1247 27.2252C46.1247 26.4703 45.5104 26.039 44.8961 26.039C44.2819 26.039 43.6676 26.4596 43.6676 27.2252Z" fill="#282828"/>
</g>
<defs>
<clipPath id="clip0_47_718">
<rect width="40.3333" height="11" fill="white" transform="translate(6 20)"/>
</clipPath>
</defs>
</svg>
