<svg width="24" height="20" viewBox="0 0 24 20" fill="none" xmlns="http://www.w3.org/2000/svg">
<path d="M1 2V8H7" stroke="#FF9C00" stroke-width="2" stroke-linecap="round" stroke-linejoin="round"/>
<path d="M23 18V12H17" stroke="#FF9C00" stroke-width="2" stroke-linecap="round" stroke-linejoin="round"/>
<path d="M20.49 7.00008C19.9828 5.56686 19.1209 4.28548 17.9845 3.27549C16.8482 2.26551 15.4745 1.55984 13.9917 1.22433C12.5089 0.888827 10.9653 0.934416 9.50482 1.35685C8.04438 1.77928 6.71475 2.56479 5.64001 3.64007C4.5 4.5 3.51001 5.5 1.5 7.00008M23 12.0001L18.36 16.3601C17.2853 17.4354 15.9556 18.2209 14.4952 18.6433C13.0348 19.0657 11.4911 19.1113 10.0083 18.7758C8.52547 18.4403 7.15181 17.7346 6.01547 16.7247C4.87914 15.7147 4.01718 14.4333 3.51001 13.0001" stroke="#FF9C00" stroke-width="2" stroke-linecap="round" stroke-linejoin="round"/>
</svg>
