<svg width="122" height="116" viewBox="0 0 122 116" fill="none" xmlns="http://www.w3.org/2000/svg">
<path d="M108.208 112.533H111.425V115.55H94.7416V112.533H97.9583H98.1583V112.333V110.625V110.425H97.9583H87.7083C86.8552 110.425 86.037 110.086 85.4338 109.483C84.8305 108.88 84.4916 108.061 84.4916 107.208V88.4167C84.4916 87.5636 84.8305 86.7454 85.4338 86.1421C86.037 85.5389 86.8552 85.2 87.7083 85.2H118.458C119.311 85.2 120.13 85.5389 120.733 86.1421C121.336 86.7454 121.675 87.5636 121.675 88.4167V107.208C121.675 108.061 121.336 108.88 120.733 109.483C120.13 110.086 119.311 110.425 118.458 110.425H108.208H108.008V110.625V112.333V112.533H108.208ZM87.7083 88.2167H87.5083V88.4167V107.208V107.408H87.7083H118.458H118.658V107.208V88.4167V88.2167H118.458H87.7083Z" fill="white" stroke="#393939" stroke-width="0.4"/>
<path d="M103 86V75C103 73.5 101.5 73.5 99.5 73.5C97.9 73.5 92.1667 73.5 91 73.5C89.5 73.5 89 72.5 89 71C89 69.8 89 64.8333 89 63" stroke="white" stroke-width="3"/>
<path d="M28.5047 22.8864L28.5048 22.8863C32.8141 19.1703 38.3103 17.118 44.0005 17.1C55.5959 17.1003 65.2073 25.72 66.2528 36.816L66.2787 37.091L66.5523 37.1297C73.3556 38.0912 78.65 43.7847 78.65 50.7569C78.65 58.4105 72.2637 64.525 64.5056 64.525H25.5419C16.6551 64.525 9.35 57.5225 9.35 48.7663C9.35 41.2278 14.7641 34.9743 21.9467 33.3886L22.1778 33.3376L22.2165 33.1041C22.8253 29.43 25.1976 25.7359 28.5047 22.8864ZM25.7387 34.9281V36.5746L24.1038 36.7546C17.824 37.4423 13.025 42.6019 13.025 48.7663C13.025 55.3871 18.5725 60.85 25.5419 60.85H64.5056C70.3463 60.85 74.975 56.2752 74.975 50.7569C74.975 45.2343 70.3464 40.6594 64.5056 40.6594H62.6681V38.822C62.6681 38.822 62.6681 38.8219 62.6681 38.8219C62.6725 28.9062 54.3683 20.775 44 20.775L43.9986 20.775C39.4408 20.7932 35.0313 22.3544 31.4831 25.1918V25.169L30.9045 25.6681C27.5445 28.5665 25.7387 32.0985 25.7387 34.9281Z" fill="white" stroke="#393939" stroke-width="0.7"/>
<path d="M24 45.2829C24 45.1267 24.1267 45 24.2829 45H33.7171C33.8733 45 34 45.1267 34 45.2829V54.7171C34 54.8733 33.8733 55 33.7171 55H24.2829C24.1267 55 24 54.8733 24 54.7171V45.2829Z" fill="white"/>
<path d="M39 45.2829C39 45.1267 39.1267 45 39.2829 45H48.7171C48.8733 45 49 45.1267 49 45.2829V54.7171C49 54.8733 48.8733 55 48.7171 55H39.2829C39.1267 55 39 54.8733 39 54.7171V45.2829Z" fill="white"/>
<path d="M55 45.2829C55 45.1267 55.1267 45 55.2829 45H64.7171C64.8733 45 65 45.1267 65 45.2829V54.7171C65 54.8733 64.8733 55 64.7171 55H55.2829C55.1267 55 55 54.8733 55 54.7171V45.2829Z" fill="white"/>
<circle cx="87" cy="31" r="30" fill="#FF9C00"/>
<path d="M87.8538 59.4624L86.1509 62.9418C75.2426 57.4986 68.1931 45.1714 68.1931 31.4556C68.1931 18.0532 74.8603 6.32969 85.4312 0.761644L87.3429 3.71221C78.0395 8.65561 72.0629 19.5211 72.0629 31.4556C72.0629 43.6759 78.2479 54.6536 87.8538 59.4624Z" fill="white" stroke="#FF9C00" stroke-width="0.4"/>
<path d="M105.149 31.4568V31.4568C105.154 44.8757 98.4628 57.0908 88.1308 62.6628L86.3158 59.2457C95.4253 54.3171 101.28 43.4289 101.28 31.4568C101.28 19.6232 95.521 8.78598 86.5709 3.80432L88.0859 0.775428C98.2417 6.40574 105.149 18.2084 105.149 31.4568Z" fill="white" stroke="#FF9C00" stroke-width="0.4"/>
<line x1="60" y1="18.5" x2="114" y2="18.5" stroke="white" stroke-width="3"/>
<line x1="60" y1="44.5" x2="114" y2="44.5" stroke="white" stroke-width="3"/>
<line x1="58" y1="31.5" x2="117" y2="31.5" stroke="white" stroke-width="3"/>
<line x1="86.5" y1="3" x2="86.5" y2="62" stroke="white" stroke-width="3"/>
<circle cx="87" cy="32" r="30" stroke="white" stroke-width="3"/>
<path d="M23.9167 112.658H27.1333V115.675H10.45V112.658H13.6667H13.8667V112.458V110.75V110.55H13.6667H3.41667C2.56355 110.55 1.74538 110.211 1.14214 109.608C0.538898 109.005 0.2 108.186 0.2 107.333V88.5417C0.2 87.6886 0.538898 86.8704 1.14214 86.2671C1.74538 85.6639 2.56355 85.325 3.41667 85.325H34.1667C35.0198 85.325 35.838 85.6639 36.4412 86.2671C37.0444 86.8704 37.3833 87.6886 37.3833 88.5417V107.333C37.3833 108.186 37.0444 109.005 36.4412 109.608C35.838 110.211 35.0198 110.55 34.1667 110.55H23.9167H23.7167V110.75V112.458V112.658H23.9167ZM3.41667 88.3417H3.21667V88.5417V107.333V107.533H3.41667H34.1667H34.3667V107.333V88.5417V88.3417H34.1667H3.41667Z" fill="white" stroke="#393939" stroke-width="0.4"/>
<path d="M18 85.5V74.5C18 73 19.5 73 21.5 73C23.1 73 25.8333 73 27 73C28.5 73 29 72 29 70.5C29 69.3 29 65.3333 29 63.5" stroke="white" stroke-width="3"/>
<path d="M66.2083 112.533H69.425V115.55H52.7417V112.533H55.9583H56.1583V112.333V110.625V110.425H55.9583H45.7083C44.8552 110.425 44.037 110.086 43.4338 109.483C42.8306 108.88 42.4917 108.061 42.4917 107.208V88.4167C42.4917 87.5636 42.8306 86.7454 43.4338 86.1421C44.037 85.5389 44.8552 85.2 45.7083 85.2H76.4583C77.3114 85.2 78.1296 85.5389 78.7328 86.1421C79.3361 86.7454 79.675 87.5636 79.675 88.4167V107.208C79.675 108.061 79.3361 108.88 78.7328 109.483C78.1296 110.086 77.3114 110.425 76.4583 110.425H66.2083H66.0083V110.625V112.333V112.533H66.2083ZM45.7083 88.2167H45.5083V88.4167V107.208V107.408H45.7083H76.4583H76.6583V107.208V88.4167V88.2167H76.4583H45.7083Z" fill="white" stroke="#393939" stroke-width="0.4"/>
<line x1="60.5" y1="64" x2="60.5" y2="86" stroke="white" stroke-width="3"/>
</svg>
