<svg width="120" height="120" viewBox="0 0 120 120" fill="none" xmlns="http://www.w3.org/2000/svg">
<path d="M41.9131 41.4521C41.9131 41.2023 42.1155 40.9999 42.3653 40.9999H49.374C49.6237 40.9999 49.8261 41.2023 49.8261 41.4521V48.4608C49.8261 48.7105 49.6237 48.9129 49.374 48.9129H42.3653C42.1155 48.9129 41.9131 48.7105 41.9131 48.4608V41.4521Z" fill="#FF9C00"/>
<mask id="path-2-inside-1_20_742" fill="white">
<rect x="34" y="30" width="52" height="29.3913" rx="1.13044"/>
</mask>
<rect x="34" y="30" width="52" height="29.3913" rx="1.13044" stroke="white" stroke-width="6" mask="url(#path-2-inside-1_20_742)"/>
<path d="M41.9131 72.4522C41.9131 72.2024 42.1155 72 42.3653 72H49.374C49.6237 72 49.8261 72.2024 49.8261 72.4522V79.4609C49.8261 79.7106 49.6237 79.913 49.374 79.913H42.3653C42.1155 79.913 41.9131 79.7106 41.9131 79.4609V72.4522Z" fill="#FF9C00"/>
<mask id="path-4-inside-2_20_742" fill="white">
<rect x="34" y="61" width="52" height="29.3913" rx="1.13044"/>
</mask>
<rect x="34" y="61" width="52" height="29.3913" rx="1.13044" stroke="white" stroke-width="6" mask="url(#path-4-inside-2_20_742)"/>
<path d="M99.6561 32.2007L99.6799 32.2062L99.7039 32.211C105.002 33.2675 109.77 36.1278 113.197 40.3049C116.623 44.4819 118.496 49.7174 118.496 55.12C118.496 60.5225 116.623 65.758 113.197 69.9351C110.162 73.6351 106.074 76.3019 101.497 77.5971V70.1124C104.283 68.9424 106.697 67.0183 108.46 64.5471C110.434 61.7812 111.495 58.468 111.495 55.07C111.495 51.672 110.434 48.3588 108.46 45.5928C106.49 42.8314 103.707 40.7531 100.501 39.6469C99.1216 39.1399 97.6795 38.8245 96.2146 38.7095L96.2048 38.7088L89.6941 38.2407L88.4192 31.8661C88.419 31.8653 88.4189 31.8645 88.4187 31.8638C87.2615 25.9705 84.2991 20.5833 79.9424 16.4493C75.5851 12.3148 70.0491 9.63887 64.1023 8.79264C58.1555 7.94642 52.0928 8.97188 46.7552 11.7268C41.4193 14.4808 37.0724 18.8266 34.3171 24.1617C34.3161 24.1634 34.3152 24.1652 34.3143 24.1669L32.1942 28.195L27.6438 28.6628L27.6438 28.6628L27.6351 28.6638C24.675 28.9856 21.8162 29.9288 19.2458 31.4317C15.9802 33.3028 13.2663 36.0028 11.3785 39.2589C9.48958 42.5171 8.49476 46.2164 8.49476 49.9825C8.49476 53.7486 9.48958 57.4479 11.3785 60.706C13.1201 63.7099 15.5648 66.2406 18.4972 68.0837V76.0528C13.7901 73.9893 9.71769 70.6804 6.73009 66.4655C3.32755 61.6651 1.5 55.9264 1.5 50.0425C1.5 44.1585 3.32755 38.4198 6.73009 33.6195C10.1326 28.8191 14.9422 25.1941 20.494 23.2453L20.5057 23.2412L20.5174 23.2369C22.5849 22.4725 24.7355 21.9548 26.9244 21.6945L27.7129 21.6007L28.0786 20.8959C31.5126 14.2789 36.9181 8.89279 43.5474 5.4827C50.1767 2.07261 57.702 0.807164 65.082 1.86145C72.462 2.91574 79.332 6.23764 84.7413 11.3675C90.1506 16.4974 93.8318 23.1817 95.2756 30.4955L95.4917 31.59L96.6022 31.6979C97.6301 31.7978 98.6503 31.9658 99.6561 32.2007Z" fill="white" stroke="#393939" stroke-width="3"/>
<path fill-rule="evenodd" clip-rule="evenodd" d="M56.5 89V111C56.5 112.006 56.2262 112.988 55.449 113.681C54.7054 114.345 53.7702 114.5 53 114.5H52.9926H52.9845H52.9758H52.9663H52.9562H52.9454H52.9339H52.9217H52.9088H52.8953H52.8811H52.8662H52.8507H52.8345H52.8176H52.8001H52.7819H52.7631H52.7436H52.7235H52.7027H52.6813H52.6593H52.6366H52.6133H52.5893H52.5648H52.5395H52.5137H52.4873H52.4602H52.4325H52.4042H52.3753H52.3458H52.3156H52.2849H52.2536H52.2216H52.1891H52.156H52.1223H52.088H52.0531H52.0176H51.9816H51.945H51.9078H51.87H51.8317H51.7927H51.7533H51.7132H51.6726H51.6315H51.5898H51.5475H51.5047H51.4614H51.4175H51.3731H51.3281H51.2826H51.2365H51.1899H51.1428H51.0952H51.0471H50.9984H50.9492H50.8995H50.8493H50.7985H50.7473H50.6956H50.6433H50.5906H50.5373H50.4836H50.4294H50.3746H50.3194H50.2638H50.2076H50.1509H50.0938H50.0362H49.9781H49.9196H49.8606H49.8011H49.7412H49.6808H49.6199H49.5586H49.4969H49.4347H49.3721H49.309H49.2454H49.1815H49.1171H49.0522H48.987H48.9213H48.8552H48.7886H48.7217H48.6543H48.5865H48.5183H48.4497H48.3807H48.3113H48.2415H48.1712H48.1006H48.0296H47.9582H47.8864H47.8143H47.7417H47.6688H47.5954H47.5217H47.4477H47.3732H47.2984H47.2233H47.1477H47.0718H46.9956H46.919H46.842H46.7647H46.6871H46.6091H46.5307H46.452H46.373H46.2937H46.214H46.134H46.0536H45.973H45.892H45.8107H45.7291H45.6471H45.5649H45.4824H45.3995H45.3163H45.2329H45.1491H45.0651H44.9807H44.8961H44.8112H44.726H44.6405H44.5547H44.4686H44.3823H44.2957H44.2089H44.1217H44.0343H43.9467H43.8588H43.7706H43.6822H43.5935H43.5045H43.4154H43.326H43.2363H43.1464H43.0563H42.9659H42.8753H42.7845H42.6934H42.6022H42.5107H42.419H42.327H42.2349H42.1425H42.05H41.9572H41.8643H41.7711H41.6777H41.5842H41.4904H41.3965H41.3024H41.2081H41.1136H41.0189H40.9241H40.8291H40.7339H40.6385H40.543H40.4473H40.3515H40.2555H40.1593H40.063H39.9665H39.8699H39.7732H39.6763H39.5792H39.482H39.3847H39.2873H39.1897H39.092H38.9942H38.8962H38.7982H38.7H38.6017H38.5033H38.4048H38.3061H38.2074H38.1086H38.0097H37.9106H37.8115H37.7123H37.613H37.5136H37.4142H37.3146H37.215H37.1153H37.0155H36.9157H36.8158H36.7158H36.6157H36.5156H36.4155H36.3153H36.215H36.1147H36.0144H35.9139H35.8135H35.713H35.6125H35.5119H35.4114H35.3107H35.2101H35.1094H35.0088H34.9081H34.8073H34.7066H34.6059H34.5051H34.4044H34.3036H34.2028H34.1021H34.0013H33.9006H33.7998H33.6991H33.5984H33.4977H33.3971H33.2964H33.1958H33.0952H32.9946H32.8941H32.7936H32.6932H32.5928H32.4924H32.3921H32.2918H32.1916H32.0914H31.9913H31.8912H31.7912H31.6913H31.5915H31.4917H31.392H31.2923H31.1928H31.0933H30.9939H30.8945H30.7953H30.6962H30.5971H30.4982H30.3993H30.3006H30.2019H30.1034H30.0049H29.9066H29.8084H29.7103H29.6123H29.5145H29.4168H29.3192H29.2217H29.1243H29.0271H28.9301H28.8331H28.7363H28.6397H28.5432H28.4468H28.3506H28.2546H28.1587H28.063H27.9674H27.872H27.7768H27.6818H27.5869H27.4922H27.3976H27.3033H27.2091H27.1151H27.0214H26.9278H26.8344H26.7411H26.6481H26.5553H26.4627H26.3703H26.2781H26.1862H26.0944H26.0029H25.9115H25.8204H25.7295H25.6389H25.5485H25.4583H25.3683H25.2786H25.1891H25.0999H25.0109H24.9222H24.8337H24.7455H24.6575H24.5698H24.4823H24.3951H24.3082H24.2215H24.1352H24.049H23.9632H23.8776H23.7924H23.7074H23.6227H23.5383H23.4541H23.3703H23.2868H23.2036H23.1206H23.038H22.9557H22.8737H22.792H22.7106H22.6296H22.5488H22.4684H22.3883H22.3086H22.2291H22.15H22.0713H21.9929H21.9148H21.837H21.7597H21.6826H21.6059H21.5296H21.4536H21.378H21.3027H21.2279H21.1533H21.0792H21.0054H20.932H20.859H20.7863H20.714H20.6422H20.5707H20.4996H20.4289H20.3586H20.2886H20.2191H20.15H20.0813H20.013H19.9451H19.8777H19.8106H19.744H19.6778H19.612H19.5466H19.4817H19.4172H19.3531H19.2895H19.2263H19.1635H19.1012H19.0394H18.978H18.917H18.8565H18.7965H18.7369H18.6778H18.6191H18.561H18.5033H18.446H18.3893H18.333H18.2772H18.2219H18.167H18.1127H18.0588H18.0055H17.9526H17.9002H17.8484H17.797H17.7462H17.6958H17.646H17.5967H17.5479H17.4996H17.4519H17.4047H17.358H17.3118H17.2662H17.2211H17.1765H17.1325H17.089H17.0461H17.0037H17H16.9618H16.9206H16.8798H16.8397H16.8001H16.761H16.7226H16.6847H16.6473H16.6106H16.5744H16.5388H16.5038H16.4693H16.4355H16.4022H16.3696H16.3375H16.306H16.2751H16.2449H16.2152H16.1862H16.1577H16.1299H16.1027H16.0761H16.0501H16.0247H16H12.793C12.14 116.809 10.0176 118.5 7.5 118.5C4.46243 118.5 2 116.038 2 113C2 109.962 4.46243 107.5 7.5 107.5C10.0176 107.5 12.14 109.191 12.793 111.5H16H16.0247H16.0501H16.0761H16.1027H16.1299H16.1577H16.1862H16.2152H16.2449H16.2751H16.306H16.3375H16.3696H16.4022H16.4355H16.4693H16.5038H16.5388H16.5744H16.6106H16.6473H16.6847H16.7226H16.761H16.8001H16.8397H16.8798H16.9206H16.9618H17H17.0037H17.0461H17.089H17.1325H17.1765H17.2211H17.2662H17.3118H17.358H17.4047H17.4519H17.4996H17.5479H17.5967H17.646H17.6958H17.7462H17.797H17.8484H17.9002H17.9526H18.0055H18.0588H18.1127H18.167H18.2219H18.2772H18.333H18.3893H18.446H18.5033H18.561H18.6191H18.6778H18.7369H18.7965H18.8565H18.917H18.978H19.0394H19.1012H19.1635H19.2263H19.2895H19.3531H19.4172H19.4817H19.5466H19.612H19.6778H19.744H19.8106H19.8777H19.9451H20.013H20.0813H20.15H20.2191H20.2886H20.3586H20.4289H20.4996H20.5707H20.6422H20.714H20.7863H20.859H20.932H21.0054H21.0792H21.1533H21.2279H21.3027H21.378H21.4536H21.5296H21.6059H21.6826H21.7597H21.837H21.9148H21.9929H22.0713H22.15H22.2291H22.3086H22.3883H22.4684H22.5488H22.6296H22.7106H22.792H22.8737H22.9557H23.038H23.1206H23.2036H23.2868H23.3703H23.4541H23.5383H23.6227H23.7074H23.7924H23.8776H23.9632H24.049H24.1352H24.2215H24.3082H24.3951H24.4823H24.5698H24.6575H24.7455H24.8337H24.9222H25.0109H25.0999H25.1891H25.2786H25.3683H25.4583H25.5485H25.6389H25.7295H25.8204H25.9115H26.0029H26.0944H26.1862H26.2781H26.3703H26.4627H26.5553H26.6481H26.7411H26.8344H26.9278H27.0214H27.1151H27.2091H27.3033H27.3976H27.4922H27.5869H27.6818H27.7768H27.872H27.9674H28.063H28.1587H28.2546H28.3506H28.4468H28.5432H28.6397H28.7363H28.8331H28.9301H29.0271H29.1243H29.2217H29.3192H29.4168H29.5145H29.6123H29.7103H29.8084H29.9066H30.0049H30.1034H30.2019H30.3006H30.3993H30.4982H30.5971H30.6962H30.7953H30.8945H30.9939H31.0933H31.1928H31.2923H31.392H31.4917H31.5915H31.6913H31.7912H31.8912H31.9913H32.0914H32.1916H32.2918H32.3921H32.4924H32.5928H32.6932H32.7936H32.8941H32.9946H33.0952H33.1958H33.2964H33.3971H33.4977H33.5984H33.6991H33.7998H33.9006H34.0013H34.1021H34.2028H34.3036H34.4044H34.5051H34.6059H34.7066H34.8073H34.9081H35.0088H35.1094H35.2101H35.3107H35.4114H35.5119H35.6125H35.713H35.8135H35.9139H36.0144H36.1147H36.215H36.3153H36.4155H36.5156H36.6157H36.7158H36.8158H36.9157H37.0155H37.1153H37.215H37.3146H37.4142H37.5136H37.613H37.7123H37.8115H37.9106H38.0097H38.1086H38.2074H38.3061H38.4048H38.5033H38.6017H38.7H38.7982H38.8962H38.9942H39.092H39.1897H39.2873H39.3847H39.482H39.5792H39.6763H39.7732H39.8699H39.9665H40.063H40.1593H40.2555H40.3515H40.4473H40.543H40.6385H40.7339H40.8291H40.9241H41.0189H41.1136H41.2081H41.3024H41.3965H41.4904H41.5842H41.6777H41.7711H41.8643H41.9572H42.05H42.1425H42.2349H42.327H42.419H42.5107H42.6022H42.6934H42.7845H42.8753H42.9659H43.0563H43.1464H43.2363H43.326H43.4154H43.5045H43.5935H43.6822H43.7706H43.8588H43.9467H44.0343H44.1217H44.2089H44.2957H44.3823H44.4686H44.5547H44.6405H44.726H44.8112H44.8961H44.9807H45.0651H45.1491H45.2329H45.3163H45.3995H45.4824H45.5649H45.6471H45.7291H45.8107H45.892H45.973H46.0536H46.134H46.214H46.2937H46.373H46.452H46.5307H46.6091H46.6871H46.7647H46.842H46.919H46.9956H47.0718H47.1477H47.2233H47.2984H47.3732H47.4477H47.5217H47.5954H47.6688H47.7417H47.8143H47.8864H47.9582H48.0296H48.1006H48.1712H48.2415H48.3113H48.3807H48.4497H48.5183H48.5865H48.6543H48.7217H48.7886H48.8552H48.9213H48.987H49.0522H49.1171H49.1815H49.2454H49.309H49.3721H49.4347H49.4969H49.5586H49.6199H49.6808H49.7412H49.8011H49.8606H49.9196H49.9781H50.0362H50.0938H50.1509H50.2076H50.2638H50.3194H50.3746H50.4294H50.4836H50.5373H50.5906H50.6433H50.6956H50.7473H50.7985H50.8493H50.8995H50.9492H50.9984H51.0471H51.0952H51.1428H51.1899H51.2365H51.2826H51.3281H51.3731H51.4175H51.4614H51.5047H51.5475H51.5898H51.6315H51.6726H51.7132H51.7533H51.7927H51.8317H51.87H51.9078H51.945H51.9816H52.0176H52.0531H52.088H52.1223H52.156H52.1891H52.2216H52.2536H52.2849H52.3156H52.3458H52.3753H52.4042H52.4325H52.4602H52.4873H52.5137H52.5395H52.5648H52.5893H52.6133H52.6366H52.6593H52.6813H52.7027H52.7235H52.7436H52.7631H52.7819H52.8001H52.8176H52.8345H52.8507H52.8662H52.8811H52.8953H52.9088H52.9217H52.9339H52.9454H52.9562H52.9663H52.9758H52.9845H52.9926H53C53.2718 111.5 53.3976 111.462 53.4424 111.444L53.4466 111.433C53.4665 111.378 53.5 111.247 53.5 111V89H56.5ZM7.5 115.5C8.88071 115.5 10 114.381 10 113C10 111.619 8.88071 110.5 7.5 110.5C6.11929 110.5 5 111.619 5 113C5 114.381 6.11929 115.5 7.5 115.5Z" fill="white"/>
<path fill-rule="evenodd" clip-rule="evenodd" d="M42.5 96C43.8807 96 45 97.1193 45 98.5C45 99.8807 43.8807 101 42.5 101C41.1193 101 40 99.8807 40 98.5C40 97.1193 41.1193 96 42.5 96ZM44 93.207C46.3085 93.86 48 95.9824 48 98.5C48 101.538 45.5376 104 42.5 104C39.4624 104 37 101.538 37 98.5C37 95.9824 38.6915 93.86 41 93.207L41 89L44 89L44 93.207Z" fill="white"/>
<path fill-rule="evenodd" clip-rule="evenodd" d="M77.5 96C78.8807 96 80 97.1193 80 98.5C80 99.8807 78.8807 101 77.5 101C76.1193 101 75 99.8807 75 98.5C75 97.1193 76.1193 96 77.5 96ZM79 93.207C81.3085 93.86 83 95.9824 83 98.5C83 101.538 80.5376 104 77.5 104C74.4624 104 72 101.538 72 98.5C72 95.9824 73.6915 93.86 76 93.207L76 89L79 89L79 93.207Z" fill="white"/>
<path fill-rule="evenodd" clip-rule="evenodd" d="M113.5 110.5C112.119 110.5 111 111.619 111 113C111 114.381 112.119 115.5 113.5 115.5C114.881 115.5 116 114.381 116 113C116 111.619 114.881 110.5 113.5 110.5ZM113.5 107.5C110.982 107.5 108.86 109.191 108.207 111.5L104 111.5L103.975 111.5L103.95 111.5L103.924 111.5L103.897 111.5L103.87 111.5L103.842 111.5L103.814 111.5L103.785 111.5L103.755 111.5L103.725 111.5L103.694 111.5L103.663 111.5L103.63 111.5L103.598 111.5L103.565 111.5L103.531 111.5L103.496 111.5L103.461 111.5L103.426 111.5L103.389 111.5L103.353 111.5L103.315 111.5L103.277 111.5L103.239 111.5L103.2 111.5L103.16 111.5L103.12 111.5L103.079 111.5L103.038 111.5L102.996 111.5L102.954 111.5L102.911 111.5L102.868 111.5L102.824 111.5L102.779 111.5L102.734 111.5L102.688 111.5L102.642 111.5L102.595 111.5L102.548 111.5L102.5 111.5L102.452 111.5L102.403 111.5L102.354 111.5L102.304 111.5L102.254 111.5L102.203 111.5L102.152 111.5L102.1 111.5L102.047 111.5L101.995 111.5L101.941 111.5L101.887 111.5L101.833 111.5L101.778 111.5L101.723 111.5L101.667 111.5L101.611 111.5L101.554 111.5L101.497 111.5L101.439 111.5L101.381 111.5L101.322 111.5L101.263 111.5L101.204 111.5L101.143 111.5L101.083 111.5L101.022 111.5L100.961 111.5L100.899 111.5L100.836 111.5L100.774 111.5L100.711 111.5L100.647 111.5L100.583 111.5L100.518 111.5L100.453 111.5L100.388 111.5L100.322 111.5L100.256 111.5L100.189 111.5L100.122 111.5L100.055 111.5L99.987 111.5L99.9187 111.5L99.85 111.5L99.7809 111.5L99.7114 111.5L99.6415 111.5L99.5711 111.5L99.5004 111.5L99.4293 111.5L99.3578 111.5L99.286 111.5L99.2137 111.5L99.141 111.5L99.068 111.5L98.9946 111.5L98.9208 111.5L98.8467 111.5L98.7721 111.5L98.6973 111.5L98.622 111.5L98.5464 111.5L98.4704 111.5L98.3941 111.5L98.3174 111.5L98.2404 111.5L98.163 111.5L98.0852 111.5L98.0071 111.5L97.9287 111.5L97.85 111.5L97.7709 111.5L97.6914 111.5L97.6117 111.5L97.5316 111.5L97.4512 111.5L97.3704 111.5L97.2894 111.5L97.208 111.5L97.1263 111.5L97.0443 111.5L96.962 111.5L96.8794 111.5L96.7964 111.5L96.7132 111.5L96.6297 111.5L96.5459 111.5L96.4617 111.5L96.3773 111.5L96.2926 111.5L96.2076 111.5L96.1224 111.5L96.0368 111.5L95.951 111.5L95.8648 111.5L95.7785 111.5L95.6918 111.5L95.6049 111.5L95.5177 111.5L95.4302 111.5L95.3425 111.5L95.2545 111.5L95.1663 111.5L95.0778 111.5L94.9891 111.5L94.9001 111.5L94.8109 111.5L94.7214 111.5L94.6317 111.5L94.5417 111.5L94.4515 111.5L94.3611 111.5L94.2705 111.5L94.1796 111.5L94.0885 111.5L93.9971 111.5L93.9056 111.5L93.8138 111.5L93.7219 111.5L93.6297 111.5L93.5373 111.5L93.4447 111.5L93.3519 111.5L93.2589 111.5L93.1657 111.5L93.0722 111.5L92.9786 111.5L92.8849 111.5L92.7909 111.5L92.6967 111.5L92.6024 111.5L92.5078 111.5L92.4131 111.5L92.3182 111.5L92.2232 111.5L92.128 111.5L92.0326 111.5L91.937 111.5L91.8413 111.5L91.7454 111.5L91.6494 111.5L91.5532 111.5L91.4568 111.5L91.3603 111.5L91.2637 111.5L91.1669 111.5L91.0699 111.5L90.9729 111.5L90.8757 111.5L90.7783 111.5L90.6808 111.5L90.5832 111.5L90.4855 111.5L90.3877 111.5L90.2897 111.5L90.1916 111.5L90.0934 111.5L89.9951 111.5L89.8966 111.5L89.7981 111.5L89.6994 111.5L89.6007 111.5L89.5018 111.5L89.4029 111.5L89.3038 111.5L89.2047 111.5L89.1055 111.5L89.0061 111.5L88.9067 111.5L88.8073 111.5L88.7077 111.5L88.608 111.5L88.5083 111.5L88.4085 111.5L88.3087 111.5L88.2088 111.5L88.1088 111.5L88.0087 111.5L87.9086 111.5L87.8084 111.5L87.7082 111.5L87.6079 111.5L87.5076 111.5L87.4072 111.5L87.3068 111.5L87.2064 111.5L87.1059 111.5L87.0054 111.5L86.9048 111.5L86.8042 111.5L86.7036 111.5L86.6029 111.5L86.5023 111.5L86.4016 111.5L86.3009 111.5L86.2002 111.5L86.0994 111.5L85.9987 111.5L85.8979 111.5L85.7972 111.5L85.6964 111.5L85.5956 111.5L85.4949 111.5L85.3941 111.5L85.2934 111.5L85.1927 111.5L85.0919 111.5L84.9912 111.5L84.8906 111.5L84.7899 111.5L84.6893 111.5L84.5886 111.5L84.4881 111.5L84.3875 111.5L84.287 111.5L84.1865 111.5L84.0861 111.5L83.9857 111.5L83.8853 111.5L83.785 111.5L83.6847 111.5L83.5845 111.5L83.4844 111.5L83.3843 111.5L83.2842 111.5L83.1842 111.5L83.0843 111.5L82.9845 111.5L82.8847 111.5L82.785 111.5L82.6854 111.5L82.5858 111.5L82.4864 111.5L82.387 111.5L82.2877 111.5L82.1885 111.5L82.0894 111.5L81.9904 111.5L81.8914 111.5L81.7926 111.5L81.6939 111.5L81.5952 111.5L81.4967 111.5L81.3983 111.5L81.3 111.5L81.2018 111.5L81.1038 111.5L81.0058 111.5L80.908 111.5L80.8103 111.5L80.7127 111.5L80.6153 111.5L80.518 111.5L80.4208 111.5L80.3237 111.5L80.2268 111.5L80.1301 111.5L80.0335 111.5L79.937 111.5L79.8407 111.5L79.7445 111.5L79.6485 111.5L79.5527 111.5L79.457 111.5L79.3615 111.5L79.2661 111.5L79.1709 111.5L79.0759 111.5L78.9811 111.5L78.8864 111.5L78.7919 111.5L78.6976 111.5L78.6035 111.5L78.5096 111.5L78.4158 111.5L78.3223 111.5L78.2289 111.5L78.1357 111.5L78.0428 111.5L77.95 111.5L77.8575 111.5L77.7651 111.5L77.673 111.5L77.5811 111.5L77.4893 111.5L77.3978 111.5L77.3066 111.5L77.2155 111.5L77.1247 111.5L77.0341 111.5L76.9437 111.5L76.8536 111.5L76.7637 111.5L76.674 111.5L76.5846 111.5L76.4955 111.5L76.4065 111.5L76.3178 111.5L76.2294 111.5L76.1412 111.5L76.0533 111.5L75.9657 111.5L75.8783 111.5L75.7911 111.5L75.7043 111.5L75.6177 111.5L75.5314 111.5L75.4453 111.5L75.3595 111.5L75.274 111.5L75.1888 111.5L75.1039 111.5L75.0193 111.5L74.9349 111.5L74.8509 111.5L74.7671 111.5L74.6837 111.5L74.6005 111.5L74.5176 111.5L74.4351 111.5L74.3529 111.5L74.2709 111.5L74.1893 111.5L74.108 111.5L74.027 111.5L73.9464 111.5L73.866 111.5L73.786 111.5L73.7063 111.5L73.627 111.5L73.548 111.5L73.4693 111.5L73.3909 111.5L73.3129 111.5L73.2353 111.5L73.158 111.5L73.081 111.5L73.0044 111.5L72.9282 111.5L72.8523 111.5L72.7767 111.5L72.7016 111.5L72.6268 111.5L72.5523 111.5L72.4783 111.5L72.4046 111.5L72.3312 111.5L72.2583 111.5L72.1857 111.5L72.1136 111.5L72.0418 111.5L71.9704 111.5L71.8994 111.5L71.8288 111.5L71.7585 111.5L71.6887 111.5L71.6193 111.5L71.5503 111.5L71.4817 111.5L71.4135 111.5L71.3457 111.5L71.2783 111.5L71.2114 111.5L71.1448 111.5L71.0787 111.5L71.013 111.5L70.9478 111.5L70.8829 111.5L70.8185 111.5L70.7546 111.5L70.691 111.5L70.6279 111.5L70.5653 111.5L70.5031 111.5L70.4414 111.5L70.3801 111.5L70.3192 111.5L70.2588 111.5L70.1989 111.5L70.1394 111.5L70.0804 111.5L70.0219 111.5L69.9638 111.5L69.9062 111.5L69.8491 111.5L69.7924 111.5L69.7362 111.5L69.6806 111.5L69.6254 111.5L69.5706 111.5L69.5164 111.5L69.4627 111.5L69.4094 111.5L69.3567 111.5L69.3044 111.5L69.2527 111.5L69.2015 111.5L69.1507 111.5L69.1005 111.5L69.0508 111.5L69.0016 111.5L68.9529 111.5L68.9048 111.5L68.8572 111.5L68.8101 111.5L68.7635 111.5L68.7174 111.5L68.6719 111.5L68.6269 111.5L68.5825 111.5L68.5386 111.5L68.4953 111.5L68.4525 111.5L68.4102 111.5L68.3685 111.5L68.3274 111.5L68.2868 111.5L68.2467 111.5L68.2073 111.5L68.1683 111.5L68.13 111.5L68.0922 111.5L68.055 111.5L68.0184 111.5L67.9824 111.5L67.9469 111.5L67.912 111.5L67.8777 111.5L67.844 111.5L67.8109 111.5L67.7784 111.5L67.7464 111.5L67.7151 111.5L67.6844 111.5L67.6542 111.5L67.6247 111.5L67.5958 111.5L67.5675 111.5L67.5398 111.5L67.5127 111.5L67.4863 111.5L67.4605 111.5L67.4353 111.5L67.4107 111.5L67.3867 111.5L67.3634 111.5L67.3407 111.5L67.3187 111.5L67.2973 111.5L67.2765 111.5L67.2564 111.5L67.2369 111.5L67.2181 111.5L67.1999 111.5L67.1824 111.5L67.1655 111.5L67.1493 111.5L67.1338 111.5L67.1189 111.5L67.1047 111.5L67.0912 111.5L67.0783 111.5L67.0661 111.5L67.0546 111.5L67.0438 111.5L67.0337 111.5L67.0242 111.5L67.0155 111.5L67.0074 111.5L67 111.5C66.7282 111.5 66.6024 111.462 66.5576 111.444L66.5534 111.433C66.5335 111.378 66.5 111.247 66.5 111L66.5 89L63.5 89L63.5 111C63.5 112.006 63.7738 112.988 64.551 113.681C65.2946 114.345 66.2298 114.5 67 114.5L67.0074 114.5L67.0155 114.5L67.0242 114.5L67.0337 114.5L67.0438 114.5L67.0546 114.5L67.0661 114.5L67.0783 114.5L67.0912 114.5L67.1047 114.5L67.1189 114.5L67.1338 114.5L67.1493 114.5L67.1655 114.5L67.1824 114.5L67.1999 114.5L67.2181 114.5L67.2369 114.5L67.2564 114.5L67.2765 114.5L67.2973 114.5L67.3187 114.5L67.3407 114.5L67.3634 114.5L67.3867 114.5L67.4107 114.5L67.4353 114.5L67.4605 114.5L67.4863 114.5L67.5127 114.5L67.5398 114.5L67.5675 114.5L67.5958 114.5L67.6247 114.5L67.6542 114.5L67.6844 114.5L67.7151 114.5L67.7464 114.5L67.7784 114.5L67.8109 114.5L67.844 114.5L67.8777 114.5L67.912 114.5L67.9469 114.5L67.9824 114.5L68.0184 114.5L68.055 114.5L68.0922 114.5L68.13 114.5L68.1683 114.5L68.2073 114.5L68.2467 114.5L68.2868 114.5L68.3274 114.5L68.3685 114.5L68.4102 114.5L68.4525 114.5L68.4953 114.5L68.5386 114.5L68.5825 114.5L68.6269 114.5L68.6719 114.5L68.7174 114.5L68.7635 114.5L68.8101 114.5L68.8572 114.5L68.9048 114.5L68.9529 114.5L69.0016 114.5L69.0508 114.5L69.1005 114.5L69.1507 114.5L69.2015 114.5L69.2527 114.5L69.3044 114.5L69.3567 114.5L69.4094 114.5L69.4627 114.5L69.5164 114.5L69.5706 114.5L69.6254 114.5L69.6806 114.5L69.7362 114.5L69.7924 114.5L69.8491 114.5L69.9062 114.5L69.9638 114.5L70.0219 114.5L70.0804 114.5L70.1394 114.5L70.1989 114.5L70.2588 114.5L70.3192 114.5L70.3801 114.5L70.4414 114.5L70.5031 114.5L70.5653 114.5L70.6279 114.5L70.691 114.5L70.7546 114.5L70.8185 114.5L70.8829 114.5L70.9478 114.5L71.013 114.5L71.0787 114.5L71.1448 114.5L71.2114 114.5L71.2783 114.5L71.3457 114.5L71.4135 114.5L71.4817 114.5L71.5503 114.5L71.6193 114.5L71.6887 114.5L71.7585 114.5L71.8288 114.5L71.8994 114.5L71.9704 114.5L72.0418 114.5L72.1136 114.5L72.1857 114.5L72.2583 114.5L72.3312 114.5L72.4046 114.5L72.4783 114.5L72.5523 114.5L72.6268 114.5L72.7016 114.5L72.7767 114.5L72.8523 114.5L72.9282 114.5L73.0044 114.5L73.081 114.5L73.158 114.5L73.2353 114.5L73.3129 114.5L73.3909 114.5L73.4693 114.5L73.548 114.5L73.627 114.5L73.7063 114.5L73.786 114.5L73.866 114.5L73.9464 114.5L74.027 114.5L74.108 114.5L74.1893 114.5L74.2709 114.5L74.3529 114.5L74.4351 114.5L74.5176 114.5L74.6005 114.5L74.6837 114.5L74.7671 114.5L74.8509 114.5L74.9349 114.5L75.0193 114.5L75.1039 114.5L75.1888 114.5L75.274 114.5L75.3595 114.5L75.4453 114.5L75.5314 114.5L75.6177 114.5L75.7043 114.5L75.7911 114.5L75.8783 114.5L75.9657 114.5L76.0533 114.5L76.1412 114.5L76.2294 114.5L76.3178 114.5L76.4065 114.5L76.4955 114.5L76.5846 114.5L76.674 114.5L76.7637 114.5L76.8536 114.5L76.9437 114.5L77.0341 114.5L77.1247 114.5L77.2155 114.5L77.3066 114.5L77.3978 114.5L77.4893 114.5L77.5811 114.5L77.673 114.5L77.7651 114.5L77.8575 114.5L77.95 114.5L78.0428 114.5L78.1357 114.5L78.2289 114.5L78.3223 114.5L78.4158 114.5L78.5096 114.5L78.6035 114.5L78.6976 114.5L78.7919 114.5L78.8864 114.5L78.9811 114.5L79.0759 114.5L79.1709 114.5L79.2661 114.5L79.3615 114.5L79.457 114.5L79.5527 114.5L79.6485 114.5L79.7445 114.5L79.8407 114.5L79.937 114.5L80.0335 114.5L80.1301 114.5L80.2268 114.5L80.3237 114.5L80.4208 114.5L80.518 114.5L80.6153 114.5L80.7127 114.5L80.8103 114.5L80.908 114.5L81.0058 114.5L81.1038 114.5L81.2018 114.5L81.3 114.5L81.3983 114.5L81.4967 114.5L81.5952 114.5L81.6939 114.5L81.7926 114.5L81.8914 114.5L81.9904 114.5L82.0894 114.5L82.1885 114.5L82.2877 114.5L82.387 114.5L82.4864 114.5L82.5858 114.5L82.6854 114.5L82.785 114.5L82.8847 114.5L82.9845 114.5L83.0843 114.5L83.1842 114.5L83.2842 114.5L83.3843 114.5L83.4844 114.5L83.5845 114.5L83.6847 114.5L83.785 114.5L83.8853 114.5L83.9857 114.5L84.0861 114.5L84.1865 114.5L84.287 114.5L84.3875 114.5L84.4881 114.5L84.5886 114.5L84.6893 114.5L84.7899 114.5L84.8906 114.5L84.9912 114.5L85.0919 114.5L85.1927 114.5L85.2934 114.5L85.3941 114.5L85.4949 114.5L85.5956 114.5L85.6964 114.5L85.7972 114.5L85.8979 114.5L85.9987 114.5L86.0994 114.5L86.2002 114.5L86.3009 114.5L86.4016 114.5L86.5023 114.5L86.6029 114.5L86.7036 114.5L86.8042 114.5L86.9048 114.5L87.0054 114.5L87.1059 114.5L87.2064 114.5L87.3068 114.5L87.4072 114.5L87.5076 114.5L87.6079 114.5L87.7082 114.5L87.8084 114.5L87.9086 114.5L88.0087 114.5L88.1088 114.5L88.2088 114.5L88.3087 114.5L88.4085 114.5L88.5083 114.5L88.608 114.5L88.7077 114.5L88.8073 114.5L88.9067 114.5L89.0061 114.5L89.1055 114.5L89.2047 114.5L89.3038 114.5L89.4029 114.5L89.5018 114.5L89.6007 114.5L89.6994 114.5L89.7981 114.5L89.8966 114.5L89.9951 114.5L90.0934 114.5L90.1916 114.5L90.2897 114.5L90.3877 114.5L90.4855 114.5L90.5832 114.5L90.6808 114.5L90.7783 114.5L90.8757 114.5L90.9729 114.5L91.0699 114.5L91.1669 114.5L91.2637 114.5L91.3603 114.5L91.4568 114.5L91.5532 114.5L91.6494 114.5L91.7454 114.5L91.8413 114.5L91.937 114.5L92.0326 114.5L92.128 114.5L92.2232 114.5L92.3182 114.5L92.4131 114.5L92.5078 114.5L92.6024 114.5L92.6967 114.5L92.7909 114.5L92.8849 114.5L92.9786 114.5L93.0722 114.5L93.1657 114.5L93.2589 114.5L93.3519 114.5L93.4447 114.5L93.5373 114.5L93.6297 114.5L93.7219 114.5L93.8138 114.5L93.9056 114.5L93.9972 114.5L94.0885 114.5L94.1796 114.5L94.2705 114.5L94.3611 114.5L94.4515 114.5L94.5417 114.5L94.6317 114.5L94.7214 114.5L94.8109 114.5L94.9001 114.5L94.9891 114.5L95.0778 114.5L95.1663 114.5L95.2545 114.5L95.3425 114.5L95.4302 114.5L95.5177 114.5L95.6049 114.5L95.6918 114.5L95.7785 114.5L95.8648 114.5L95.951 114.5L96.0368 114.5L96.1224 114.5L96.2076 114.5L96.2926 114.5L96.3773 114.5L96.4617 114.5L96.5459 114.5L96.6297 114.5L96.7132 114.5L96.7964 114.5L96.8794 114.5L96.962 114.5L97.0443 114.5L97.1263 114.5L97.208 114.5L97.2894 114.5L97.3704 114.5L97.4512 114.5L97.5316 114.5L97.6117 114.5L97.6914 114.5L97.7709 114.5L97.85 114.5L97.9287 114.5L98.0071 114.5L98.0852 114.5L98.163 114.5L98.2404 114.5L98.3174 114.5L98.3941 114.5L98.4704 114.5L98.5464 114.5L98.622 114.5L98.6973 114.5L98.7721 114.5L98.8467 114.5L98.9208 114.5L98.9946 114.5L99.068 114.5L99.141 114.5L99.2137 114.5L99.286 114.5L99.3578 114.5L99.4293 114.5L99.5004 114.5L99.5711 114.5L99.6415 114.5L99.7114 114.5L99.7809 114.5L99.85 114.5L99.9187 114.5L99.987 114.5L100.055 114.5L100.122 114.5L100.189 114.5L100.256 114.5L100.322 114.5L100.388 114.5L100.453 114.5L100.518 114.5L100.583 114.5L100.647 114.5L100.711 114.5L100.774 114.5L100.836 114.5L100.899 114.5L100.961 114.5L101.022 114.5L101.083 114.5L101.143 114.5L101.204 114.5L101.263 114.5L101.322 114.5L101.381 114.5L101.439 114.5L101.497 114.5L101.554 114.5L101.611 114.5L101.667 114.5L101.723 114.5L101.778 114.5L101.833 114.5L101.887 114.5L101.941 114.5L101.995 114.5L102.047 114.5L102.1 114.5L102.152 114.5L102.203 114.5L102.254 114.5L102.304 114.5L102.354 114.5L102.403 114.5L102.452 114.5L102.5 114.5L102.548 114.5L102.595 114.5L102.642 114.5L102.688 114.5L102.734 114.5L102.779 114.5L102.824 114.5L102.868 114.5L102.911 114.5L102.954 114.5L102.996 114.5L103.038 114.5L103.079 114.5L103.12 114.5L103.16 114.5L103.2 114.5L103.239 114.5L103.277 114.5L103.315 114.5L103.353 114.5L103.389 114.5L103.426 114.5L103.461 114.5L103.496 114.5L103.531 114.5L103.565 114.5L103.598 114.5L103.63 114.5L103.663 114.5L103.694 114.5L103.725 114.5L103.755 114.5L103.785 114.5L103.814 114.5L103.842 114.5L103.87 114.5L103.897 114.5L103.924 114.5L103.95 114.5L103.975 114.5L104 114.5L108.207 114.5C108.86 116.809 110.982 118.5 113.5 118.5C116.538 118.5 119 116.038 119 113C119 109.962 116.538 107.5 113.5 107.5Z" fill="white"/>
</svg>
