<svg width="10" height="11" viewBox="0 0 10 11" fill="none" xmlns="http://www.w3.org/2000/svg">
<path d="M10 5.5C10 6.7432 9.47322 7.93549 8.53553 8.81456C7.59785 9.69364 6.32608 10.1875 5 10.1875C3.67392 10.1875 2.40215 9.69364 1.46447 8.81456C0.526784 7.93549 0 6.7432 0 5.5C0 4.2568 0.526784 3.06451 1.46447 2.18544C2.40215 1.30636 3.67392 0.8125 5 0.8125C6.32608 0.8125 7.59785 1.30636 8.53553 2.18544C9.47322 3.06451 10 4.2568 10 5.5ZM7.51875 3.72461C7.47411 3.6829 7.42095 3.65006 7.36246 3.62806C7.30397 3.60605 7.24134 3.59533 7.17833 3.59653C7.11531 3.59773 7.05321 3.61084 6.99572 3.63506C6.93823 3.65928 6.88655 3.69412 6.84375 3.7375L4.67313 6.33027L3.365 5.10332C3.27614 5.0257 3.15861 4.98344 3.03717 4.98544C2.91574 4.98745 2.79987 5.03357 2.71399 5.11409C2.6281 5.1946 2.57891 5.30323 2.57677 5.41708C2.57462 5.53092 2.6197 5.64111 2.7025 5.72441L4.35625 7.27539C4.4008 7.31708 4.45385 7.34993 4.51224 7.37198C4.57063 7.39404 4.63315 7.40484 4.69609 7.40374C4.75903 7.40265 4.82108 7.38969 4.87856 7.36562C4.93604 7.34155 4.98775 7.30688 5.03062 7.26367L7.52563 4.33984C7.61068 4.25693 7.65767 4.14606 7.6565 4.03103C7.65534 3.916 7.6061 3.80599 7.51937 3.72461H7.51875Z" fill="white"/>
</svg>
