<svg width="340" height="125" viewBox="0 0 340 125" fill="none" xmlns="http://www.w3.org/2000/svg">
<path d="M97.2691 58.9991C104.398 61.6493 109.918 65.5095 113.828 70.5793C117.737 75.6492 119.692 81.7563 119.692 88.9002C119.692 99.501 115.323 107.74 106.583 113.616C97.844 119.377 85.1951 122.258 68.6365 122.258H0.677246V1.271H65.1868C81.2854 1.271 93.417 4.15164 101.581 9.91294C109.861 15.6742 114 23.3368 114 32.9005C114 38.5466 112.563 43.6165 109.688 48.1103C106.928 52.6041 102.789 56.2337 97.2691 58.9991ZM40.6939 29.7894V47.7646H59.6673C68.5215 47.7646 72.9486 44.7688 72.9486 38.777C72.9486 32.7852 68.5215 29.7894 59.6673 29.7894H40.6939ZM65.1868 93.7397C74.156 93.7397 78.6407 90.5711 78.6407 84.2336C78.6407 77.8961 74.156 74.7275 65.1868 74.7275H40.6939V93.7397H65.1868Z" fill="white"/>
<path d="M281.546 1.271L242.909 122.258H199.27L179.779 57.6164L159.254 122.258H115.615L76.978 1.271H118.892L139.935 70.0608L162.186 1.271H199.615L220.658 70.925L242.909 1.271H281.546Z" fill="#FF9C00"/>
<path d="M284.7 124.055C274.898 124.063 265.321 123.005 255.969 120.882C246.729 118.646 246.82 118.581 244.068 117.661L253.307 86.7135C259.665 89.1613 257.914 88.9147 264.901 90.9279C271.887 92.8289 278.591 93.7768 285.013 93.7716C290.533 93.7671 294.476 93.2592 296.841 92.2478C299.206 91.1242 300.388 89.4971 300.386 87.366C300.384 84.8984 298.805 83.0491 295.65 81.8179C292.607 80.5867 287.536 79.2449 280.437 77.7926C271.31 75.8934 263.704 73.8807 257.619 71.7546C251.533 69.5164 246.235 65.9315 241.725 61.0002C237.214 55.9567 234.956 49.1729 234.949 40.6488C234.943 33.2462 237.021 26.515 241.185 20.455C245.349 14.395 251.541 9.62315 259.762 6.13951C268.096 2.65579 278.178 0.909118 290.008 0.899488C298.119 0.892885 306.062 1.78369 313.837 3.57192C321.725 5.24787 328.656 7.76584 334.629 11.1258L322.654 39.9044C311.046 34.0815 300.059 31.1744 289.694 31.1828C279.442 31.1911 274.318 33.6629 274.322 38.5978C274.324 40.9532 275.846 42.7466 278.889 43.9778C281.932 45.097 286.946 46.3266 293.932 47.6668C302.946 49.3418 310.553 51.2985 316.751 53.5366C322.949 55.6626 328.303 59.1913 332.813 64.1226C337.436 69.0538 339.752 75.7815 339.758 84.3056C339.764 91.7081 337.686 98.4394 333.522 104.499C329.358 110.447 323.11 115.219 314.776 118.815C306.554 122.299 296.529 124.045 284.7 124.055Z" fill="white"/>
</svg>
